<?xml version="1.0" encoding="utf-8"?>
<!-- Generator: Adobe Illustrator 19.0.0, SVG Export Plug-In . SVG Version: 6.00 Build 0)  -->
<svg version="1.1" id="Camada_1" xmlns="http://www.w3.org/2000/svg" xmlns:xlink="http://www.w3.org/1999/xlink" x="0px" y="0px"
	 viewBox="0 0 143.6 56" style="enable-background:new 0 0 143.6 56;" xml:space="preserve">
<g id="XMLID_45_">
	<g id="XMLID_320_">
		<path id="XMLID_532_" d="M13.1,53.2c-4.1,0-8.2-1.1-11.6-2.1c-1.1-0.3-1.7-1.4-1.4-2.5c0.3-1.1,1.4-1.7,2.5-1.4
			c4.5,1.3,10.2,2.9,15,1.3c2.5-0.8,4.7-2.8,5.7-5.2c0.5-1.2,0.9-2.9,0-4.6c-1.1-2-3.3-3.2-5.8-4.4c-1.7-0.9-3.5-1.8-5-3
			c-4.3-3.5-6.3-9.8-5.1-16.1c0.9-4.8,3.4-9.5,7.8-14.5c0.7-0.8,2-0.9,2.8-0.2c0.8,0.7,0.9,2,0.2,2.8c-3.9,4.4-6.1,8.5-6.9,12.6
			c-0.9,4.8,0.6,9.6,3.7,12.3c1.2,1,2.7,1.8,4.3,2.6c2.9,1.5,5.8,3,7.5,6.1c1.3,2.4,1.3,5.2,0.2,8c-1.4,3.5-4.6,6.4-8.2,7.5
			C16.9,53,15,53.2,13.1,53.2z"/>
	</g>
	<g id="XMLID_179_">
		<path id="XMLID_531_" d="M53.9,56c-2.7,0-5.5-0.7-7.9-2.3c-4.8-3.1-8-8.9-8.6-15.9c-0.6-6,0.7-11.8,1.8-17.4
			c0.2-1.1,1.3-1.8,2.4-1.5c1.1,0.2,1.8,1.3,1.5,2.4c-1.1,5.3-2.3,10.8-1.8,16.2c0.5,5.6,3.1,10.5,6.8,12.9
			c3.7,2.4,9.7,2.4,12.6-1.4c2.9-3.8,1.7-9.6,0.3-14.7l-3.2-11.9c-0.3-1.1,0.3-2.2,1.4-2.5c1.1-0.3,2.2,0.3,2.5,1.4L65,33.2
			c1.2,4.4,3.4,12.4-1,18.2C61.8,54.4,57.9,56,53.9,56z"/>
	</g>
	<g id="XMLID_87_">
		<path id="XMLID_403_" d="M86.9,53.8c-0.9,0-1.8-0.7-2-1.6c-2.6-13.6-5.2-27.4-7.7-41c-0.2-1.1,0.5-2.1,1.6-2.3
			c1.1-0.2,2.1,0.5,2.3,1.6c2.5,13.6,5,27.4,7.6,41c0.2,1.1-0.5,2.1-1.6,2.3C87.2,53.8,87,53.8,86.9,53.8z"/>
	</g>
	<g id="XMLID_48_">
		<path id="XMLID_363_" d="M106.4,47c-0.3,0-0.6-0.1-0.9-0.2L86,37.4c-0.6-0.3-1-0.8-1.1-1.4c-0.1-0.6,0.1-1.3,0.5-1.7
			c6.1-6.7,10.8-14.7,13.6-23.3c0.3-1,1.5-1.6,2.5-1.3c1,0.3,1.6,1.5,1.3,2.5c-2.7,8.3-7.1,16.1-12.7,22.8l17.2,8.3
			c1,0.5,1.4,1.7,0.9,2.7C107.9,46.6,107.2,47,106.4,47z"/>
	</g>
	<g id="XMLID_46_">
		<path id="XMLID_361_" d="M131.4,49.4c-4.6,0-8.9-2.9-11.3-6.5c-3-4.5-3.8-9.9-4.5-14.6l-2.3-15.6c-0.2-1.1,0.6-2.1,1.7-2.3
			c1.1-0.2,2.1,0.6,2.3,1.7l2.3,15.6c0.6,4.3,1.4,9.3,3.9,13c2.1,3.1,6.4,5.8,10.1,4.4c4-1.4,6-6.5,6-14.9c0-5.5-0.1-11.1-0.3-16.6
			c0-1.1,0.8-2,1.9-2.1c1.1,0,2,0.8,2.1,1.9c0.2,5.6,0.3,11.2,0.3,16.7c0,10.3-3,16.6-8.7,18.6C133.8,49.2,132.6,49.4,131.4,49.4z"
			/>
	</g>
</g>
</svg>
