<?xml version="1.0" encoding="utf-8"?>
<!-- Generator: Adobe Illustrator 19.0.0, SVG Export Plug-In . SVG Version: 6.00 Build 0)  -->
<svg version="1.1" id="Camada_1" xmlns="http://www.w3.org/2000/svg" xmlns:xlink="http://www.w3.org/1999/xlink" x="0px" y="0px"
	 viewBox="0 0 105.1 36.7" style="enable-background:new 0 0 105.1 36.7;" xml:space="preserve">
<g id="XMLID_173_">
	<g id="XMLID_177_">
		<path id="XMLID_182_" d="M12.1,36.7c-4.2,0-8.4-2.1-10.8-5.7c-0.5-0.7-0.4-1.6,0-2.3c-2.4-6.6-1.7-14.3,2-20.4
			c2-3.3,4.6-5.2,7.5-5.6c3.2-0.4,6.6,1.4,9.3,4.9c3,3.9,4.8,8.8,5,13.7c0.1,2.9-0.3,5.5-1.3,7.7c-1.9,4.2-6.1,7.2-10.7,7.5
			C12.8,36.7,12.5,36.7,12.1,36.7z M6.6,30.8c1.8,1.4,4.1,2.1,6.3,1.9c3.1-0.3,6.1-2.4,7.4-5.2c0.7-1.6,1-3.6,1-5.8
			c-0.2-4.1-1.6-8.2-4.1-11.5c-0.9-1.1-3.1-3.7-5.7-3.4c-2.1,0.2-3.7,2.4-4.5,3.7C3.3,16.3,3.1,24.1,6.3,30
			C6.5,30.3,6.6,30.5,6.6,30.8z"/>
	</g>
	<g id="XMLID_176_">
		<path id="XMLID_181_" d="M34.1,32.1c-0.8,0-1.6-0.5-1.9-1.3c-1.5-3.9-3.1-8-3.7-12.4c-0.6-5.2,0.5-9.9,3-13.3
			c3.2-4.2,8.8-6.1,13.3-4.5c4.1,1.5,6.5,5.3,8,8.1c2,3.7,3,6.9,3.2,9.9c0.3,4.1-1.1,8-3.7,10.4c-3.6,3.4-9.6,3.7-13.5,0.8
			c-0.9-0.7-1.1-1.9-0.4-2.8c0.7-0.9,1.9-1.1,2.8-0.4c2.4,1.8,6.2,1.6,8.4-0.5c1.7-1.6,2.7-4.3,2.5-7.2c-0.2-2.4-1-5.1-2.8-8.3
			c-1.9-3.5-3.7-5.4-5.9-6.2c-2.9-1-6.6,0.3-8.7,3.1c-2,2.6-2.8,6.3-2.3,10.4c0.5,3.9,2,7.7,3.4,11.4c0.4,1-0.1,2.2-1.1,2.6
			C34.6,32,34.3,32.1,34.1,32.1z"/>
	</g>
	<g id="XMLID_175_">
		<path id="XMLID_180_" d="M75.3,30.7c-0.2,0-0.3,0-0.5-0.1c-0.9-0.2-1.6-1-1.8-1.9c-0.1-0.3,0-0.7,0.1-1L60.3,7.4
			c-0.6-0.9-0.3-2.2,0.6-2.8c0.9-0.6,2.2-0.3,2.8,0.6l13.4,21.4c1,1.6,0.4,2.7,0.1,3.1C76.7,30.4,76.1,30.7,75.3,30.7z"/>
	</g>
	<g id="XMLID_174_">
		<path id="XMLID_179_" d="M96.3,35.6c-0.6,0-1.2-0.1-1.8-0.2c-5.8-1.3-10.9-5.3-13.7-10.6c-2.8-5.3-3.1-11.7-0.8-17.3
			c0.4-1,1.6-1.5,2.6-1.1c1,0.4,1.5,1.6,1.1,2.6c-1.8,4.4-1.6,9.6,0.6,13.9c2.2,4.3,6.3,7.4,11,8.5c0.6,0.1,0.9,0.2,1.1,0.1
			c0.1-0.1,0.4-0.3,0.9-1c2.2-3.6,3.3-8.2,3.7-14.5c0.1-2.5,0.1-5.1-1-7.2c-0.8-1.7-2.8-3.1-4.5-2.7c-1.6,0.4-2.7,2.1-3.2,3.5
			c-1.4,4-0.5,8.5,0.8,13.5c0.9-0.2,1.8,0.2,2.2,1.1c0.5,1,0.3,2.2-0.6,3c-0.9,0.9-2.3,1.1-3.4,0.5c-1.4-0.7-1.8-2.2-2-2.9
			c-1.2-4.6-2.9-10.9-0.9-16.5C89.7,5.2,92,3,94.6,2.4c3.9-0.9,7.5,1.7,9,4.8c1.5,2.9,1.5,6.1,1.4,9.2c-0.3,7-1.7,12.2-4.2,16.3
			c-0.6,1-1.5,2.2-2.9,2.7C97.3,35.6,96.8,35.6,96.3,35.6z"/>
	</g>
</g>
</svg>
