<?xml version="1.0" encoding="utf-8"?>
<!-- Generator: Adobe Illustrator 19.0.0, SVG Export Plug-In . SVG Version: 6.00 Build 0)  -->
<svg version="1.1" id="Camada_1" xmlns="http://www.w3.org/2000/svg" xmlns:xlink="http://www.w3.org/1999/xlink" x="0px" y="0px"
	 viewBox="0 0 131.1 44.1" style="enable-background:new 0 0 131.1 44.1;" xml:space="preserve">
<g id="XMLID_177_">
	<g id="XMLID_180_">
		<g id="XMLID_181_">
			<path id="XMLID_87_" d="M20.6,41.6c-0.6,0-1.2-0.3-1.6-0.8C12.1,31.3,6.5,21,2.3,10.2c-0.4,0-0.7-0.1-1.1-0.3
				C0.2,9.3-0.2,8,0.1,7C0.3,5.9,1.2,5.1,2.3,5C3.1,5,4.8,5.2,5.7,7.8c3.7,9.8,8.5,19.1,14.4,27.8c3.4-7.9,6.5-15.9,9.2-24
				c0.4-1,1.5-1.6,2.5-1.2c1,0.4,1.6,1.5,1.2,2.5c-3.2,9.3-6.8,18.6-10.8,27.6c-0.3,0.7-0.9,1.1-1.6,1.2
				C20.7,41.6,20.6,41.6,20.6,41.6z"/>
		</g>
	</g>
	<g id="XMLID_179_">
		<path id="XMLID_45_" d="M69,38.2c-5.7,0-11-2.9-15.1-7c-0.6,0.2-1.4,0.1-1.9-0.4c-0.7-0.6-0.9-1.6-0.5-2.4
			c-1.6-2.1-2.9-4.3-3.9-6.6c-0.4-1,0-2.2,1.1-2.6c1-0.4,2.2,0,2.6,1.1c0.6,1.4,1.3,2.7,2.1,4c0.4-2,0.3-4.3,0.3-6.7
			c-0.1-4.5-0.2-9.2,2.7-12.9c3.5-4.4,9.4-5.1,13.9-4.3c9,1.7,16.1,9.7,16.5,18.5c0.5,9.2-6.6,18-15.5,19.2
			C70.6,38.1,69.8,38.2,69,38.2z M56.4,28c3.8,4.1,9,6.8,14.4,6c6.8-0.9,12.4-7.9,12-15c-0.4-6.9-6.2-13.4-13.3-14.8
			c-3.1-0.6-7.6-0.2-10,2.8c-2,2.6-2,6.4-1.9,10.4C57.8,21,57.9,24.8,56.4,28z"/>
	</g>
	<g id="XMLID_3_">
		<path id="XMLID_44_" d="M129.1,44.1c-0.4,0-0.9-0.1-1.2-0.4l-2.1-1.7c-0.9-0.7-1-1.9-0.3-2.8c0.3-0.4,0.8-0.7,1.2-0.7
			c-1-8.1-2.5-16.1-4.6-23.9c-1.5,2.4-2.7,4.9-3.5,7.6c-0.2,0.6-0.7,1.1-1.3,1.3c-0.6,0.2-1.3,0.1-1.8-0.3c-4.3-3.1-7.9-6.5-11-10.5
			l3.2,22.5c0.2,1.1-0.6,2.1-1.7,2.3c-1.1,0.2-2.1-0.6-2.3-1.7L99.2,4.6c-0.1-1,0.4-1.9,1.3-2.2c0.9-0.3,1.9,0.1,2.4,0.9
			c3.5,6.1,7.5,10.8,12.7,15c1.4-3.5,3.3-6.7,5.6-9.7c0.5-0.6,1.2-0.9,2-0.7c0.7,0.1,1.3,0.7,1.5,1.4c3,10.6,5.1,21.5,6.2,32.5
			c0.1,0.8-0.3,1.6-1,2C129.7,44,129.4,44.1,129.1,44.1z"/>
	</g>
</g>
</svg>
