<?xml version="1.0" encoding="utf-8"?>
<!-- Generator: Adobe Illustrator 19.0.0, SVG Export Plug-In . SVG Version: 6.00 Build 0)  -->
<svg version="1.1" id="Camada_1" xmlns="http://www.w3.org/2000/svg" xmlns:xlink="http://www.w3.org/1999/xlink" x="0px" y="0px"
	 viewBox="0 0 143.5 49.9" style="enable-background:new 0 0 143.5 49.9;" xml:space="preserve">
<g id="XMLID_45_">
	<g id="XMLID_320_">
		<path id="XMLID_403_" d="M22,49.9c-2.2,0-4.3-0.3-6.3-1C4.8,45.2-1.9,32.9,0.5,21.3c2.3-10.9,12.4-19.7,23.9-21
			c1.1-0.1,2.1,0.7,2.2,1.8c0.1,1.1-0.7,2.1-1.8,2.2C15,5.4,6.4,12.9,4.4,22.2c-2,9.5,3.7,20,12.5,22.9c4.4,1.5,9.6,0.9,14-1.6
			c4.2-2.3,7.2-6,8.2-10.1c0.3-1.1,1.3-1.7,2.4-1.5c1.1,0.3,1.7,1.3,1.5,2.4c-1.3,5.2-5,9.8-10.1,12.7C29.4,48.9,25.7,49.9,22,49.9z
			"/>
	</g>
	<g id="XMLID_48_">
		<g id="XMLID_179_">
			<path id="XMLID_363_" d="M52.4,49.2c-0.1,0-0.1,0-0.2,0c-1.1-0.1-1.9-1-1.8-2.1l3.1-39.7c0.1-0.7,0.5-1.3,1.1-1.7
				c0.6-0.3,1.4-0.2,2,0.2c12.7,8.8,22.5,21.7,27.6,36.3c0.9,2.5-0.1,4.1-1.3,4.8c-1.1,0.6-2.3,0.3-3.1-0.7
				c-0.7-0.9-0.9-2.5-0.1-3.5c0.1-0.1,0.2-0.2,0.3-0.2c-4.5-12.3-12.6-23.3-22.9-31.3l-2.8,36.1C54.3,48.4,53.4,49.2,52.4,49.2z"/>
		</g>
		<g id="XMLID_87_">
			<path id="XMLID_361_" d="M56,37c-0.7,0-1.4-0.4-1.8-1.1c-0.5-1-0.1-2.2,0.9-2.7C63.8,28.9,72.8,25.1,82,22c1-0.4,2.2,0.2,2.5,1.3
				c0.4,1-0.2,2.2-1.3,2.5c-9,3-17.9,6.7-26.4,11C56.6,36.9,56.3,37,56,37z"/>
		</g>
	</g>
	<g id="XMLID_46_">
		<path id="XMLID_322_" d="M131.6,49.3c-1.6,0-3.2-0.2-4.7-0.5c-5.5-0.9-11.8-2.4-17.3-5.8c-6-3.7-10-9.3-10.8-15.3
			c-0.2-1.1,0.6-2.1,1.7-2.3c1.1-0.2,2.1,0.6,2.3,1.7c0.7,4.7,4,9.4,9,12.4c4.9,3,10.8,4.4,15.9,5.2c2.5,0.4,5.4,0.8,7.5-0.3
			c3-1.6,3.9-5.7,4.2-8.9c0.7-7.4-0.7-14.9-4-21.6c-1.4-2.8-5.2-9.4-11.3-10c-6-0.5-11.2,5.5-12.2,11.5c-1.1,6.7,1.3,13.8,3.4,20
			c0.4,1-0.2,2.2-1.2,2.5c-1,0.4-2.2-0.2-2.5-1.2c-2.2-6.3-4.9-14.2-3.6-21.9c1.3-7.7,8-15.6,16.5-14.9c5.7,0.5,11,5,14.5,12.2
			c3.6,7.4,5.1,15.6,4.3,23.7c-0.5,6-2.7,10.2-6.3,12.1C135.3,49,133.5,49.3,131.6,49.3z"/>
	</g>
</g>
</svg>
