<?xml version="1.0" encoding="utf-8"?>
<!-- Generator: Adobe Illustrator 19.0.0, SVG Export Plug-In . SVG Version: 6.00 Build 0)  -->
<svg version="1.1" id="Camada_1" xmlns="http://www.w3.org/2000/svg" xmlns:xlink="http://www.w3.org/1999/xlink" x="0px" y="0px"
	 viewBox="0 0 90.9 46" style="enable-background:new 0 0 90.9 46;" xml:space="preserve">
<g id="XMLID_8_">
	<g id="XMLID_1_">
		<path id="XMLID_15_" d="M2,39C2,39,2,39,2,39c-1.2,0-2-1.1-2-2.2l0.7-26.1c0-1.1,0.9-2,2.1-2c1.1,0,2,0.9,1.9,2L4,36.9
			C4,38,3.1,39,2,39z"/>
	</g>
	<g id="XMLID_2_">
		<path id="XMLID_11_" d="M18.6,40c-3.9,0-7.9-0.7-11.7-1.7c-1.1-0.3-1.7-1.5-1.4-2.5c0.3-1.1,1.4-1.8,2.4-1.5
			c1,0.2,1.9,0.4,2.9,0.6c0-0.2,0-0.5,0.1-0.7C13.6,24.7,16.7,15.3,20,6c0.3-0.9,1.1-1.4,2-1.3c0.9,0.1,1.6,0.7,1.8,1.6
			c0.2,1,0.9,2,1.7,3.1c0.7,0.9,1.4,1.9,1.9,3.1c1.4,3.1,0.8,6.9-1.3,9.6c-0.3,0.4-0.6,0.7-1,1c0.9,0.5,1.7,1.2,2.3,1.9
			c3,3.2,3.3,8.3,0.8,11.4c-2.8,3.4-7.7,3.6-9.4,3.6C18.8,40,18.7,40,18.6,40z M14.6,35.4c1.4,0.1,2.8,0.2,4.2,0.2
			c3.2,0,5.3-0.7,6.3-1.9c1.4-1.7,0.8-4.5-0.6-6c-1.1-1.2-2.8-2-4.7-2.3c-0.7,0.1-1.4,0.1-2.1,0c-1,3.3-2.1,6.6-3.1,10
			C14.7,35.3,14.7,35.4,14.6,35.4z M19,21.3c0.3,0,0.5,0,0.8,0.1c1.2-0.2,2.4-0.8,3.2-1.8c1.2-1.5,1.5-3.7,0.8-5.4
			c-0.3-0.8-0.9-1.5-1.5-2.3c0,0,0-0.1-0.1-0.1C21.1,14.9,20.1,18.1,19,21.3z"/>
	</g>
	<g id="XMLID_5_">
		<path id="XMLID_10_" d="M41.2,36c-0.6,0-1.1-0.2-1.5-0.6c-0.4-0.4-0.6-1-0.5-1.6l2.8-26.6c0.1-0.7,0.2-1.9,1.2-2.9
			c1.1-1.1,2.7-1.1,3.4-1.1l6.8,0.1c1.1,0,2,0.9,2,2c0,1.1-0.9,2-2,2l-6.8-0.1c-0.2,0-0.4,0-0.5,0c0,0.1,0,0.3,0,0.4L43.5,32
			c6.1-0.2,12.3-0.6,18.4-1.2c1.1-0.1,2.1,0.7,2.2,1.8c0.1,1.1-0.7,2.1-1.8,2.2C55.4,35.5,48.3,36,41.2,36C41.3,36,41.2,36,41.2,36z
			"/>
	</g>
	<g id="XMLID_6_">
		<path id="XMLID_9_" d="M88.2,46C88.2,46,88.2,46,88.2,46l-11.3-0.1c-1,0-2.6-0.1-4.1-1.1c-2.1-1.5-2.7-4.2-1.5-8
			c3.3-10.9,4.5-22.6,3.5-33.9c-0.1-1.5,0.9-2.7,2.4-2.9C78.8-0.1,80,1,80.2,2.4c1.1,12-0.2,24.4-3.8,35.9C76,39.6,76,40.2,76,40.5
			c0.2,0,0.7,0,0.9,0l11.3,0.1c1.5,0,2.6,1.3,2.6,2.7C90.9,44.8,89.7,46,88.2,46z"/>
	</g>
	<g id="XMLID_7_">
		<path id="XMLID_4_" d="M55,21h-8c-1.1,0-2-0.9-2-2s0.9-2,2-2h8c1.1,0,2,0.9,2,2S56.1,21,55,21z"/>
	</g>
</g>
</svg>
