<?xml version="1.0" encoding="utf-8"?>
<!-- Generator: Adobe Illustrator 19.0.0, SVG Export Plug-In . SVG Version: 6.00 Build 0)  -->
<svg version="1.1" id="Camada_1" xmlns="http://www.w3.org/2000/svg" xmlns:xlink="http://www.w3.org/1999/xlink" x="0px" y="0px"
	 viewBox="0 0 140.3 45.8" style="enable-background:new 0 0 140.3 45.8;" xml:space="preserve">
<g id="XMLID_45_">
	<g id="XMLID_361_">
		<g id="XMLID_363_">
			<path id="XMLID_411_" d="M2,10.6c-0.9,0-1.7-0.6-1.9-1.4C-0.2,8.1,0.4,7,1.4,6.7l22.4-6.6c1.1-0.3,2.2,0.3,2.5,1.4
				c0.3,1.1-0.3,2.2-1.4,2.5L2.6,10.5C2.4,10.6,2.2,10.6,2,10.6z"/>
		</g>
		<g id="XMLID_362_">
			<path id="XMLID_410_" d="M13.7,32.3c-1.1,0-2-0.9-2-2L11.3,10c0-1.1,0.9-2,2-2c1.1-0.1,2,0.9,2,2l0.4,20.3
				C15.7,31.4,14.9,32.3,13.7,32.3C13.7,32.3,13.7,32.3,13.7,32.3z"/>
		</g>
	</g>
	<g id="XMLID_322_">
		<path id="XMLID_409_" d="M36.7,11.3c-1.3,0-2.7-0.3-4-1.3c-0.9-0.6-1.1-1.9-0.5-2.8c0.6-0.9,1.9-1.1,2.8-0.5
			c1.2,0.8,2.5,0.5,4.6-0.1l4-1.2c0.5-0.2,1-0.4,1.5-0.3c1,0.1,1.8,0.8,1.9,1.8c0.1,1-0.5,1.9-1.4,2.1l-0.1,0c0,0.1-0.1,0.1-0.1,0.2
			c-0.4,1-1.6,1.5-2.6,1.1c-0.2-0.1-0.4-0.2-0.6-0.4l-1.4,0.4C39.6,10.8,38.2,11.3,36.7,11.3z"/>
	</g>
	<g id="XMLID_321_">
		<path id="XMLID_408_" d="M40.7,39.5c-1,0-1.9-0.8-2-1.8c-0.5-5.9-0.9-11.9-0.7-17.9l0-0.9c0.1-1.6,0.2-3.2,0-4.6
			c-0.4-0.4-0.6-0.9-0.6-1.5l0-1.4c0-1,0.7-1.8,1.7-1.9c0.9-0.2,1.9,0.4,2.2,1.3c1,2.8,0.9,5.6,0.7,8.3l0,0.9
			c-0.3,5.8,0.2,11.7,0.7,17.5c0.1,1.1-0.7,2.1-1.8,2.2C40.9,39.5,40.8,39.5,40.7,39.5z"/>
	</g>
	<g id="XMLID_320_">
		<path id="XMLID_407_" d="M57.1,38.3c-0.9,0-1.8-0.2-2.6-0.6c-0.9-0.4-1.6-1.1-2.4-2c-2.7-3.3-3.4-8-1.9-12c0.4-1,1.5-1.6,2.6-1.2
			c1,0.4,1.6,1.5,1.2,2.6c-1,2.6-0.5,5.9,1.3,8.1c0.4,0.5,0.7,0.8,1.1,1c1.2,0.6,3-0.4,3.8-1.7c1-1.7,1.2-3.9,1.3-6.2l0-0.2
			c0.4-6,1.1-12.1,2.2-18.1C63.9,6.7,64.9,6,66,6.2c1.1,0.2,1.8,1.2,1.6,2.3c-1,5.8-1.8,11.7-2.2,17.6l0,0.2c-0.2,2.6-0.4,5.5-1.9,8
			C62.3,36.5,59.7,38.3,57.1,38.3z"/>
	</g>
	<g id="XMLID_179_">
		<path id="XMLID_406_" d="M83.4,40c-0.8,0-1.5-0.1-2.2-0.4c-1.4-0.5-2.6-1.6-3.7-3.3c-2.8-4.5-3.1-10.1-3.2-14.9
			c-0.1-4.4,0-8.9,0.3-13.3c0.1-1.1,1-1.9,2.1-1.9c1.1,0.1,2,1,1.9,2.1c-0.2,4.3-0.3,8.7-0.2,13c0.1,4.5,0.3,9.2,2.6,12.8
			c0.6,0.9,1.1,1.5,1.7,1.7c0.4,0.2,1,0.2,1.7,0c2.3-0.5,4.4-2.2,5.2-4.4c1-2.7,0.4-6-0.6-9.6L85.9,9.6c-0.3-1.1,0.4-2.2,1.4-2.4
			c1.1-0.3,2.2,0.4,2.4,1.4l3.1,12.2c0.8,3.3,2,7.8,0.4,12c-1.3,3.5-4.5,6.2-8.1,7C84.5,39.9,84,40,83.4,40z"/>
	</g>
	<g id="XMLID_87_">
		<path id="XMLID_405_" d="M108.8,44.9c-0.9,0-1.8-0.6-2-1.6c-0.2-0.8-1.2-1.5-2.2-2.2c-0.5-0.3-1-0.7-1.4-1c-2.6-2.1-4.3-5.5-5-9.9
			c-0.9-5.6-0.2-11.1,2.1-15.6c2.1-4.1,6.7-8.1,11.7-7c1.1,0.2,1.8,1.3,1.5,2.4c-0.2,1.1-1.3,1.8-2.4,1.5c-2.8-0.6-5.8,2-7.3,4.9
			c-1.9,3.7-2.5,8.3-1.7,13.1c0.6,3.5,1.8,6,3.6,7.5c0.4,0.3,0.8,0.6,1.2,0.9c1.5,1.1,3.3,2.4,3.8,4.7c0.2,1.1-0.5,2.1-1.5,2.4
			C109.1,44.9,109,44.9,108.8,44.9z"/>
	</g>
	<g id="XMLID_48_">
		<path id="XMLID_404_" d="M120.7,45.8c0,0-0.1,0-0.1,0c-1.1-0.1-1.9-1-1.9-2.1l2.2-32.8c0.2-2.4,1.5-3.4,2.8-3.5
			c0.8-0.1,2.2,0.1,3.2,2.2l13.1,27.2c0.5,1,0.1,2.2-0.9,2.7c-1,0.5-2.2,0.1-2.7-0.9l-11.7-24.3l-2,29.7
			C122.6,45,121.7,45.8,120.7,45.8z"/>
	</g>
	<g id="XMLID_46_">
		<path id="XMLID_403_" d="M118.9,30c-0.8,0-1.6-0.5-1.9-1.3c-0.4-1,0.2-2.2,1.2-2.6l19.4-7c0.8-0.3,1.8,0,2.3,0.7
			c0.5,0.7,0.5,1.7-0.1,2.4l-1,1.3c-0.7,0.8-1.8,1-2.7,0.4l-16.5,6C119.4,29.9,119.2,30,118.9,30z"/>
	</g>
</g>
</svg>
