<?xml version="1.0" encoding="utf-8"?>
<!-- Generator: Adobe Illustrator 19.0.0, SVG Export Plug-In . SVG Version: 6.00 Build 0)  -->
<svg version="1.1" id="Camada_1" xmlns="http://www.w3.org/2000/svg" xmlns:xlink="http://www.w3.org/1999/xlink" x="0px" y="0px"
	 viewBox="0 0 48.8 69.1" style="enable-background:new 0 0 48.8 69.1;" xml:space="preserve">
<g id="XMLID_45_">
	<g id="XMLID_179_">
		<path id="XMLID_363_" d="M2,69.1c-0.1,0-0.1,0-0.2,0C0.7,69-0.1,68,0,66.9c1.5-15,1.5-30.3,0.1-45.3C0,20.5,0.9,19.5,2,19.4
			c1.1-0.1,2.1,0.7,2.2,1.8C5.6,36.5,5.5,52,4,67.3C3.9,68.3,3,69.1,2,69.1z"/>
	</g>
	<g id="XMLID_87_">
		<path id="XMLID_362_" d="M24.9,67.7c-1,0-1.8-0.7-2-1.7c-1.6-9.2-3.6-18.5-5.5-27.5l-1.8-8.3c-0.1,0-0.2-0.1-0.3-0.1
			c-1.1-0.6-1.5-1.9-1.2-2.9c0.3-1.1,1.2-1.8,2.3-1.8c0.5,0,2.4,0.2,3,2.9l2,9.4c2,9,4,18.4,5.6,27.7c0.2,1.1-0.5,2.1-1.6,2.3
			C25.1,67.7,25,67.7,24.9,67.7z"/>
	</g>
	<g id="XMLID_48_">
		<path id="XMLID_361_" d="M36.4,67.9c-0.9,0-1.7-0.6-1.9-1.5c-1.6-6-1.6-12.2-1.6-18.1L33,22.7c0-1.1,0.9-2,2-2c0,0,0,0,0,0
			c1.1,0,2,0.9,2,2l-0.1,25.6c0,5.7,0,11.6,1.5,17c0.3,1.1-0.3,2.2-1.4,2.5C36.7,67.8,36.6,67.9,36.4,67.9z"/>
	</g>
	<g id="XMLID_46_">
		<path id="XMLID_320_" d="M42,15.8c-1.4,0-2.8-0.5-4.1-1.3c-1.7-1.3-2.7-3.2-2.5-5.1c0-0.6,0.3-1.1,0.7-1.4
			c-0.5-1.2-0.6-2.5-0.1-3.9c0.7-2.1,2.5-3.7,4.5-4c3.7-0.6,7,2.3,8,5.5c1.2,4-0.7,8.3-4.2,9.8C43.6,15.7,42.8,15.8,42,15.8z
			 M39.4,9.6C39.4,9.6,39.4,9.7,39.4,9.6c-0.1,0.9,0.6,1.4,0.9,1.7c0.8,0.6,1.8,0.7,2.5,0.4c1.6-0.7,2.5-3,1.9-4.9
			c-0.5-1.5-2-3-3.5-2.7c-0.6,0.1-1.1,0.7-1.4,1.3c-0.1,0.2-0.2,0.8,0.1,1.1c0.8,0.8,0.7,2.1-0.1,2.8C39.7,9.4,39.5,9.5,39.4,9.6z"
			/>
	</g>
</g>
</svg>
