<?xml version="1.0" encoding="utf-8"?>
<!-- Generator: Adobe Illustrator 19.0.0, SVG Export Plug-In . SVG Version: 6.00 Build 0)  -->
<svg version="1.1" id="Camada_1" xmlns="http://www.w3.org/2000/svg" xmlns:xlink="http://www.w3.org/1999/xlink" x="0px" y="0px"
	 viewBox="0 0 117.2 46" style="enable-background:new 0 0 117.2 46;" xml:space="preserve">
<g id="XMLID_3_">
	<g id="XMLID_1126_">
		<path id="XMLID_248_" d="M21.1,38c-1,0-1.9-1-2-2.1l-1.6-19.5c-0.3-3.3-0.6-6.9-1.8-10C10.2,15.2,6.2,25.1,4,35.2
			c-0.2,1.1-1.3,1.7-2.4,1.5c-1.1-0.2-1.8-1.3-1.5-2.4C2.6,22.6,7.5,11,14.2,1.1c0.4-0.5,1-1.1,1.6-1.1c0,0,0,0,0,0
			c0.7,0,1.3,0.5,1.6,1.1c3.1,4.5,3.6,10.3,3.9,14.8l1.3,15.7c0.2,0.3,0.4,0.8,0.4,1.2l-0.1,3C23,36.9,22.2,38,21.1,38
			C21.1,38,21.1,38,21.1,38z"/>
	</g>
	<g id="XMLID_1112_">
		<path id="XMLID_247_" d="M51.7,38.6c-0.8,0-1.6-0.5-1.9-1.3c-3.4-8.9-7.7-17.5-12.8-25.5c-1.8,7.2-2.9,14.6-3.1,22.1
			c0,1.1-0.9,2-2.1,1.9c-1.1,0-2-1-1.9-2.1c0.3-9.2,1.8-18.4,4.4-27.3C34.6,5.7,35.2,5.1,36,5c0.8-0.1,1.5,0.2,2,0.9
			c6.4,9.3,11.6,19.4,15.6,30c0.4,1-0.1,2.2-1.2,2.6C52.1,38.5,51.9,38.6,51.7,38.6z"/>
	</g>
	<g id="XMLID_87_">
		<path id="XMLID_246_" d="M72.9,46C72.9,46,72.9,46,72.9,46c-1.2,0-2-1.1-2-2.2c0.3-13.7,1.2-27.6,2.5-41.2
			c0.1-1.1,1.1-1.9,2.2-1.8C76.7,1,77.5,1.9,77.4,3c-1.3,13.5-2.1,27.4-2.5,40.9C74.9,45,74,46,72.9,46z"/>
	</g>
	<g id="XMLID_48_">
		<path id="XMLID_245_" d="M89.9,43.7c-0.2,0-0.3,0-0.5-0.1c-1.1-0.3-1.7-1.4-1.5-2.4C91,29,95,16.9,99.9,5.3c0.3-0.7,1-1.3,1.8-1.3
			c0,0,0,0,0.1,0c0.8,0,1.5,0.5,1.8,1.2c5.3,10.8,8.7,22.4,10.2,34.4c0.1,1.1-0.6,2.1-1.7,2.2s-2.1-0.6-2.2-1.7
			c-1.2-10-3.9-19.7-7.9-28.9c-4,10.1-7.4,20.5-10,31.1C91.6,43.1,90.8,43.7,89.9,43.7z"/>
	</g>
	<g id="XMLID_46_">
		<path id="XMLID_181_" d="M21.3,27.3c-0.2,0-0.4,0-0.7-0.1c-5.5-1.9-11.4-2.3-17-1.1c-1.1,0.2-2.1-0.5-2.4-1.5
			c-0.2-1.1,0.5-2.1,1.5-2.4c6.4-1.4,13-0.9,19.2,1.2c1,0.4,1.6,1.5,1.2,2.5C22.9,26.7,22.1,27.3,21.3,27.3z"/>
	</g>
	<g id="XMLID_45_">
		<path id="XMLID_180_" d="M35.9,38.5c-0.7,0-1.4-0.4-1.7-1c-0.5-1-0.2-2.2,0.8-2.7c5.8-3.3,11.1-7.4,15.7-12.3
			c0.8-0.8,2-0.8,2.8-0.1c0.8,0.8,0.8,2,0.1,2.8c-4.9,5.2-10.5,9.6-16.6,13.1C36.6,38.4,36.3,38.5,35.9,38.5z"/>
	</g>
	<g id="XMLID_44_">
		<path id="XMLID_179_" d="M103.2,24c-2.4,0-4.8-0.1-7.2-0.3c-1.1-0.1-1.9-1.1-1.8-2.2c0.1-1.1,1.1-1.9,2.2-1.8
			c6.2,0.5,12.5,0.3,18.6-0.5c1.1-0.2,2.1,0.6,2.3,1.7c0.2,1.1-0.6,2.1-1.7,2.3C111.4,23.7,107.3,24,103.2,24z"/>
	</g>
</g>
</svg>
