<?xml version="1.0" encoding="utf-8"?>
<!-- Generator: Adobe Illustrator 19.0.0, SVG Export Plug-In . SVG Version: 6.00 Build 0)  -->
<svg version="1.1" id="Camada_1" xmlns="http://www.w3.org/2000/svg" xmlns:xlink="http://www.w3.org/1999/xlink" x="0px" y="0px"
	 viewBox="0 0 97 50.3" style="enable-background:new 0 0 97 50.3;" xml:space="preserve">
<g id="XMLID_1141_">
	<g id="XMLID_1160_">
		<path id="XMLID_180_" d="M2,41c-0.1,0-0.2,0-0.3,0c-1.1-0.1-1.9-1.1-1.7-2.2C1,31,1.1,22.4,1.2,14c0-4.2,0.1-8.2,0.2-12.1
			c0-0.6,0.3-1.1,0.7-1.4c0.4-0.4,1-0.5,1.5-0.5C11,0.9,18.6,1,26,0.2C27.1,0.1,28,0.9,28.2,2c0.1,1.1-0.7,2.1-1.8,2.2
			c-7,0.7-14,0.7-21,0c-0.1,3.2-0.1,6.4-0.2,9.9C5.1,22.5,5,31.3,4,39.3C3.8,40.3,3,41,2,41z"/>
	</g>
	<g id="XMLID_1159_">
		<path id="XMLID_179_" d="M4.8,21.2c-1,0-1.8-0.7-2-1.7c-0.2-1.1,0.6-2.1,1.6-2.3c4.3-0.7,8.7-0.9,13.1-0.6c1.1,0.1,1.9,1,1.9,2.1
			c-0.1,1.1-1,2-2.1,1.9c-4.1-0.3-8.2-0.1-12.2,0.6C5,21.2,4.9,21.2,4.8,21.2z"/>
	</g>
	<g id="XMLID_1146_">
		<path id="XMLID_87_" d="M38.4,50.3c-0.9,0-1.7-0.6-1.9-1.5l-0.9-3.2c-0.2-0.8,0.1-1.6,0.7-2.1c-0.5-9-1.6-17.9-3.4-26.7
			c-3.1,10.1-6.5,20.1-10.2,30c-0.4,1-1.5,1.6-2.6,1.2c-1-0.4-1.6-1.5-1.2-2.6c4.5-12.1,8.6-24.5,12.3-36.9c0.3-0.9,1.1-1.4,2-1.4
			c0.9,0,1.7,0.6,1.9,1.5c3.3,13,5.1,26.3,5.4,39.7c0,1-0.7,1.9-1.7,2C38.5,50.3,38.4,50.3,38.4,50.3z"/>
	</g>
	<g id="XMLID_1145_">
		<path id="XMLID_48_" d="M37.5,34.4c-0.7,0-1.5-0.4-1.8-1.1c-0.4-0.9-2-1-4.3-1c-2.7,0-6.1-0.1-7.8-3c-0.5-1-0.2-2.2,0.8-2.7
			c1-0.5,2.2-0.2,2.7,0.8c0.5,0.9,2.1,1,4.4,1c2.8,0,6.3,0.1,7.8,3.2c0.5,1,0.1,2.2-0.9,2.7C38.1,34.4,37.8,34.4,37.5,34.4z"/>
	</g>
	<g id="XMLID_1144_">
		<path id="XMLID_46_" d="M58.8,48.9c-0.9,0-1.7-0.6-1.9-1.5L56,44.3c-0.2-0.9,0.1-1.8,0.9-2.2l0.8-31.7c0-1.1,1-2,2-2
			c1.1,0,2,0.9,2,2l-0.9,36.5c0,1-0.8,1.8-1.8,1.9C58.9,48.9,58.9,48.9,58.8,48.9z"/>
	</g>
	<g id="XMLID_1143_">
		<path id="XMLID_45_" d="M81.3,46.9c-0.1,0-0.3,0-0.4,0c-1.1-0.2-1.8-1.3-1.6-2.3c1.6-8.4,4.1-17,7.2-25c0.3-0.8,1-1.5,1.9-1.5
			c0,0,0,0,0,0c0.8,0,1.6,0.8,1.9,1.5c2.8,7.8,5.1,15.9,6.7,24c0.2,1.1-0.5,2.2-1.6,2.4s-2.1-0.5-2.3-1.5c-1.2-6.1-2.8-12.1-4.7-18
			c-2.2,6.2-3.9,12.5-5.1,18.9C83,46.3,82.2,46.9,81.3,46.9z"/>
	</g>
	<g id="XMLID_1142_">
		<path id="XMLID_44_" d="M82.9,40.4c-0.6,0-1.2,0-1.8,0c-1.1-0.1-2-1-1.9-2.1c0.1-1.1,1-1.9,2.1-1.9c4.2,0.2,8.6-0.4,12.6-1.8
			c1-0.4,2.2,0.2,2.5,1.2c0.4,1-0.2,2.2-1.2,2.5C91.2,39.7,87,40.4,82.9,40.4z"/>
	</g>
</g>
</svg>
