<?xml version="1.0" encoding="utf-8"?>
<!-- Generator: Adobe Illustrator 19.0.0, SVG Export Plug-In . SVG Version: 6.00 Build 0)  -->
<svg version="1.1" id="Camada_1" xmlns="http://www.w3.org/2000/svg" xmlns:xlink="http://www.w3.org/1999/xlink" x="0px" y="0px"
	 viewBox="0 0 133.5 47.7" style="enable-background:new 0 0 133.5 47.7;" xml:space="preserve">
<g id="XMLID_1162_">
	<g id="XMLID_1183_">
		<g id="XMLID_1185_">
			<path id="XMLID_322_" d="M7.7,41.3c-0.9,0-1.8-0.7-2-1.6C3.3,27.8,1.4,15.8,0,3.8c-0.1-1,0.6-2,1.6-2.2
				c5.8-1.2,11.7-1.7,17.6-1.5c1.1,0,2,1,1.9,2.1c0,1.1-0.9,1.9-2,1.9c0,0-0.1,0-0.1,0c-5-0.2-9.9,0.2-14.8,1.1
				c1.4,11.3,3.2,22.6,5.5,33.7c0.2,1.1-0.5,2.1-1.6,2.4C8,41.2,7.8,41.3,7.7,41.3z"/>
		</g>
		<g id="XMLID_1184_">
			<path id="XMLID_321_" d="M6.6,22.5c-0.9,0-1.7-0.6-1.9-1.4C4.3,20,4.9,18.9,6,18.6l12.5-3.7c0.6-0.2,1.2-0.1,1.7,0.3
				c0.5,0.4,0.8,0.9,0.8,1.5l0.1,2c0.1,1.1-0.8,2-1.9,2.1c-0.9,0.1-1.7-0.5-2-1.3l-10.1,3C7,22.5,6.8,22.5,6.6,22.5z"/>
		</g>
	</g>
	<g id="XMLID_1182_">
		<path id="XMLID_320_" d="M70.5,47.7c-1.1,0-1.9-0.8-2-1.8C68,39.1,66.9,32.3,65,25.7c-1.5,4.2-3.3,8.3-5.5,12.2
			c-0.4,0.8-1.4,1.2-2.3,1c-0.9-0.2-1.5-1.1-1.5-2c0.2-6.4,0.4-13-0.9-19.2c-2,6.7-3.6,13.7-4.6,20.7c-0.2,1.1-1.2,1.9-2.3,1.7
			c-1.1-0.2-1.9-1.2-1.7-2.3c1.2-8,3-16,5.5-23.7c0.2-0.6,0.7-2.1,2.2-2.6c0.8-0.2,1.6-0.2,2.3,0.2c1.3,0.7,1.8,2.2,2,2.8
			c1.2,4.4,1.5,8.8,1.6,13.3c1.2-3,2.3-6.1,3.2-9.3c0.2-0.8,1-1.4,1.9-1.5c0.8,0,1.7,0.5,2,1.3c2.8,8,4.6,16.4,5.3,24.8
			c0.1,0.3,0.2,0.5,0.2,0.8l0,1.7C72.5,46.9,71.6,47.7,70.5,47.7C70.5,47.7,70.5,47.7,70.5,47.7z"/>
	</g>
	<g id="XMLID_1181_">
		<path id="XMLID_180_" d="M81.1,44c-1.1,0-1.9-0.8-2-1.9l-1.3-26.9c-0.1-0.2-0.1-0.5-0.1-0.7l0-0.3c0.1-1,1-1.9,2-1.8
			c1,0,1.9,0.8,2,1.9L83.1,42C83.2,43.1,82.3,44,81.1,44C81.2,44,81.1,44,81.1,44z"/>
	</g>
	<g id="XMLID_1166_">
		<g id="XMLID_1180_">
			<path id="XMLID_179_" d="M40.6,39.3c-1,0-1.9-0.7-2-1.7c-1.1-8.5-3.2-16.8-6.2-24.7c-1.2,7-1.6,14.1-1.3,21.1
				c0,1.1-0.8,2-1.9,2.1c-1.1,0-2-0.8-2.1-1.9c-0.4-9.6,0.5-19.2,2.6-28.5c0.2-0.8,0.9-1.5,1.7-1.5c0.8-0.1,1.7,0.4,2,1.2
				c4.2,9.1,7,18.6,8.6,28.4c0.2,0.3,0.3,0.6,0.3,1l0.2,2.6c0.1,1.1-0.7,2-1.8,2.1C40.8,39.3,40.7,39.3,40.6,39.3z"/>
		</g>
		<g id="XMLID_1167_">
			<path id="XMLID_87_" d="M32.6,26.8c-1.4,0-2.9-0.1-4.3-0.2c-1.1-0.1-1.9-1.1-1.8-2.2c0.1-1.1,1.1-1.9,2.2-1.8
				c3.8,0.3,7.7,0.2,11.5-0.5c1.1-0.2,2.1,0.5,2.3,1.6c0.2,1.1-0.5,2.1-1.6,2.3C38.1,26.6,35.3,26.8,32.6,26.8z"/>
		</g>
	</g>
	<g id="XMLID_1165_">
		<path id="XMLID_48_" d="M116.1,31.7c-1,0-1.8-0.7-2-1.6c-0.2-1.1,0.5-2.1,1.6-2.3c5.2-0.9,10.5-1.3,15.8-1.2c1.1,0,2,1,1.9,2.1
			c0,1.1-0.9,2-2.1,1.9c-5-0.2-10,0.2-14.9,1.1C116.3,31.7,116.2,31.7,116.1,31.7z"/>
	</g>
	<g id="XMLID_1164_">
		<path id="XMLID_46_" d="M131.2,45.2c-0.3,0-0.6-0.1-0.9-0.2c-0.9-0.3-1.5-1.2-1.5-2c0-0.4,0.1-0.9,0.3-1.2l-6-17.8
			c-0.4-1.2-0.9-2.2-1.4-2.8c-1.9,7.3-3.3,14.7-4.3,22.2c-0.1,1.1-1.2,1.9-2.2,1.7c-1.1-0.1-1.9-1.1-1.7-2.2
			c1.1-8.4,2.8-16.6,5-24.8c0.2-0.9,1-1.2,1.9-1.2c0,0,0,0,0,0c2.8,0,5,1.9,6.5,6.2l6.4,18.8c0.6,1.7-0.1,2.6-0.6,3
			C132.3,45.1,131.7,45.2,131.2,45.2z"/>
	</g>
	<g id="XMLID_1163_">
		<path id="XMLID_45_" d="M97.4,45.7c-2.2,0-4.3-0.3-6.5-0.8c-0.9-0.2-1.5-1.1-1.5-2c0.3-8.5,0-17.2-1-25.7
			c-0.1-1.1,0.7-2.1,1.8-2.2c1.1-0.1,2.1,0.7,2.2,1.8c0.9,8.1,1.2,16.4,1,24.6c3.3,0.6,6.7,0.4,10-0.5c1.1-0.3,2.2,0.3,2.5,1.4
			c0.3,1.1-0.3,2.2-1.4,2.5C102.3,45.4,99.8,45.7,97.4,45.7z"/>
	</g>
</g>
</svg>
