<?xml version="1.0" encoding="utf-8"?>
<!-- Generator: Adobe Illustrator 19.0.0, SVG Export Plug-In . SVG Version: 6.00 Build 0)  -->
<svg version="1.1" id="Camada_1" xmlns="http://www.w3.org/2000/svg" xmlns:xlink="http://www.w3.org/1999/xlink" x="0px" y="0px"
	 viewBox="0 0 133.6 53.2" style="enable-background:new 0 0 133.6 53.2;" xml:space="preserve">
<g id="XMLID_44_">
	<g id="XMLID_3_">
		<path id="XMLID_92_" d="M9.8,50.6c-0.9,0-1.7,0-2.6-0.1c-0.9,0-1.7-0.6-2-1.4c-0.1-0.3-0.2-0.6-0.2-0.9c-0.9-0.2-1.7-0.9-1.8-1.9
			L0.6,28.4c-0.6-4-2.4-16,5.6-20.8c4.4-2.7,10.7-1.7,14.2,2.2c3.4,3.7,4,9.7,1.5,14.2c-1.1,2-2.7,3.6-4.5,4.8
			c5.7,0.8,11,2.9,13.9,8c1.5,2.6,1.7,5.4,0.6,7.5c-1.3,2.5-4,3.5-6.2,4.1C20.5,49.9,15.2,50.6,9.8,50.6z M9.4,43.8
			c0.5,0,1.1,0.2,1.5,0.6c0.5,0.4,0.7,1,0.8,1.6c4.3-0.1,8.6-0.8,12.7-1.9c1.3-0.4,2.9-0.9,3.3-1.8c0.5-0.9,0-2.2-0.5-3.1
			c-3.2-5.7-11.9-6.2-19-6c-1.1,0-2.1-0.7-2.3-1.9c-0.2-1.1,0.4-2.2,1.4-2.6c4.4-1.7,8.6-3.5,10.5-6.9c1.6-2.8,1.2-6.6-0.9-8.9
			c-2.1-2.3-5.8-2.9-8.4-1.4C5,13.6,3.8,19,5.2,27.7l2.5,16.8C8.1,44,8.7,43.8,9.4,43.8z"/>
	</g>
	<g id="XMLID_48_">
		<path id="XMLID_89_" d="M61,51.3c-0.7,0-1.4-0.2-1.9-0.7c-0.6-0.6-1-1.4-0.9-2.3c-6.4-4.4-12.8-8.7-19.3-13
			c0.7,4.3,1.8,8.5,3.2,12.5c0.4,1.2-0.2,2.5-1.4,2.9c-1.2,0.4-2.5-0.2-2.9-1.4c-4.1-12.1-5.4-25.1-3.8-37.8c0.1-1,0.8-1.7,1.8-2
			c7.3-1.7,14.8,0.7,18.7,6c2.3,3.1,3,7.4,2,11.3c-0.9,3.5-3.1,6.2-6,7.6c-0.9,0.4-1.9,0.7-2.8,0.9c4.8,3.2,9.7,6.5,14.4,9.8
			c1.4,1,2.1,2.2,1.9,3.5c-0.1,1-0.8,1.9-1.8,2.3C61.7,51.2,61.3,51.3,61,51.3z M38.3,13.8c-0.6,5.8-0.6,11.6,0.1,17.4
			c0.5-0.3,1-0.5,1.6-0.4c3.4,0.4,6.1,0.7,8.4-0.4c1.7-0.8,3-2.4,3.5-4.6c0.7-2.6,0.2-5.5-1.3-7.5C48.2,14.9,43.3,13.2,38.3,13.8z"
			/>
	</g>
	<g id="XMLID_47_">
		<path id="XMLID_88_" d="M77.9,46.2c-1.1,0-2.1-0.8-2.3-2c-1.5-11.8-4.5-23.4-8.8-34.5c-0.5-1.2,0.1-2.5,1.3-3
			c1.2-0.5,2.5,0.1,3,1.3c4.4,11.4,7.4,23.4,9,35.5c0.2,1.3-0.7,2.4-2,2.6C78.1,46.2,78,46.2,77.9,46.2z"/>
	</g>
	<g id="XMLID_46_">
		<path id="XMLID_87_" d="M103.2,53.2C103.2,53.2,103.1,53.2,103.2,53.2c-1.2,0-2.2-0.9-2.3-2.1c-1.7-16.2-2.2-32.6-1.5-48.9
			c0.1-1.3,1.2-2.2,2.4-2.2c1.3,0.1,2.3,1.1,2.2,2.4c-0.6,13.8-0.3,27.8,0.8,41.6c1.1,0.4,1.7,1.5,1.5,2.6l-0.9,4.7
			C105.3,52.4,104.3,53.2,103.2,53.2z"/>
	</g>
	<g id="XMLID_45_">
		<path id="XMLID_20_" d="M131.3,51.8c-0.4,0-0.8-0.1-1.1-0.3l-20.9-11.9c-0.3,0.1-0.7,0.2-1.1,0.2c0,0,0,0,0,0
			c-1.1,0-2.1-0.6-2.6-1.7c-0.5-1.1-0.4-2.4,0.3-3.3c0.5-0.7,1.4-1,2.2-1l13.8-30c0.5-1.2,1.9-1.7,3.1-1.1c1.2,0.5,1.7,1.9,1.1,3.1
			L112.1,36l20.3,11.6c1.1,0.6,1.5,2,0.9,3.1C132.9,51.4,132.1,51.8,131.3,51.8z"/>
	</g>
</g>
</svg>
