<?xml version="1.0" encoding="utf-8"?>
<!-- Generator: Adobe Illustrator 19.0.0, SVG Export Plug-In . SVG Version: 6.00 Build 0)  -->
<svg version="1.1" id="Camada_1" xmlns="http://www.w3.org/2000/svg" xmlns:xlink="http://www.w3.org/1999/xlink" x="0px" y="0px"
	 viewBox="0 0 129.4 50.8" style="enable-background:new 0 0 129.4 50.8;" xml:space="preserve">
<g id="XMLID_3_">
	<g id="XMLID_89_">
		<path id="XMLID_134_" d="M103.3,49.6c-0.1,0-0.2,0-0.3,0c-1.3-0.2-2.1-1.4-1.9-2.6l5.7-38.4c0.1-0.9,0.8-1.6,1.7-1.9
			c0.9-0.2,1.8,0,2.4,0.7c8.6,10.4,15.1,22.7,18.6,35.7c0.3,1-0.2,2.1-1.1,2.6c-0.9,0.5-2.1,0.3-2.8-0.5l-2.9-3.2
			c-0.9-0.9-0.8-2.4,0.2-3.3c0.1-0.1,0.3-0.2,0.5-0.3c-3-8.5-7.3-16.7-12.6-24l-4.9,33.1C105.4,48.8,104.4,49.6,103.3,49.6z"/>
	</g>
	<g id="XMLID_20_">
		<g id="XMLID_88_">
			<path id="XMLID_93_" d="M15.5,45.6C15.5,45.6,15.4,45.6,15.5,45.6c-1.6,0-2.8-1-3.7-2.8C9.4,37.9,7.4,33,5.7,27.9
				c-0.5,0.1-1.1-0.1-1.5-0.4L1,25.4c-0.6-0.4-1-1.1-1-1.9s0.4-1.5,1-1.9c0.8-0.5,1.6-1,2.4-1.4c-0.8-3-1.5-6-2.1-9
				C1.1,9.8,0.6,7.2,2.1,5C3,3.8,4.2,3.1,5.2,2.7c7-3.5,12.3-3.6,15.6-0.3c1.8,1.7,2.6,4.1,2.3,6.7c-0.3,3.7-2.7,7.5-5.9,9.7
				c-2.3,1.5-4.8,2.5-7.2,3.5c-0.4,0.2-0.8,0.3-1.2,0.5c1.7,5.8,3.9,11.4,6.5,16.9c0.1,0,0.2,0,0.2,0c1-0.1,2,0.4,2.5,1.3
				c0.6,0.9,0.6,2.2,0,3.2C17.5,45,16.6,45.6,15.5,45.6z M14.5,4.6c-2.3,0-5,1.1-7.2,2.2C6.7,7.1,6.1,7.4,5.8,7.7
				c-0.4,0.5-0.1,2,0,2.6c0.5,2.7,1.1,5.3,1.8,8c0.2-0.1,0.5-0.2,0.7-0.3c2.3-0.9,4.4-1.7,6.3-3c2.1-1.4,3.7-4,3.9-6.3
				c0.1-1.3-0.2-2.3-1-3C16.8,4.9,15.7,4.6,14.5,4.6z"/>
		</g>
		<g id="XMLID_87_">
			<path id="XMLID_92_" d="M58,49.5c-0.9,0-1.8-0.6-2.1-1.4l-1.8-4.5c-0.3-0.6-0.2-1.3,0.1-1.9C50.9,30.9,46,20.6,39.6,11.2
				c-0.1-0.2-0.2-0.3-0.3-0.5c-0.1,0.3-0.2,0.8-0.3,1.4l-3.4,31.1c-0.1,1.3-1.3,2.2-2.5,2c-1.3-0.1-2.2-1.3-2-2.5l3.4-31.1
				c0.4-3.7,2.4-5.9,5-5.8c2.2,0.1,3.5,2,4,2.8c7.8,11.6,13.5,24.5,16.8,38.1c0.3,1.2-0.4,2.4-1.5,2.7C58.5,49.5,58.2,49.5,58,49.5z
				"/>
		</g>
		<g id="XMLID_46_">
			<path id="XMLID_91_" d="M83.3,50.8c-1.1,0-2.1-0.8-2.3-2c-1.8-12.6-3.1-25.4-4-38.1c-0.1-1.3,0.9-2.4,2.1-2.5
				c1.3-0.1,2.4,0.9,2.5,2.1c0.9,12.6,2.2,25.3,4,37.8c0.2,1.3-0.7,2.4-2,2.6C83.5,50.8,83.4,50.8,83.3,50.8z"/>
		</g>
		<g id="XMLID_45_">
			<path id="XMLID_90_" d="M64.2,33.8c-0.1,0-0.3,0-0.4,0c-10.4-1.8-21-2-31.5-0.5c-1.3,0.2-2.4-0.7-2.6-2c-0.2-1.3,0.7-2.4,2-2.6
				c11-1.6,22.1-1.4,33,0.5c1.3,0.2,2.1,1.4,1.9,2.7C66.3,33,65.3,33.8,64.2,33.8z"/>
		</g>
		<g id="XMLID_44_">
			<path id="XMLID_48_" d="M101.2,33.9c-1.1,0-2.1-0.8-2.3-2c-0.2-1.3,0.7-2.4,2-2.6l20.7-2.8c1.3-0.2,2.4,0.7,2.6,2
				c0.2,1.3-0.7,2.4-2,2.6l-20.7,2.8C101.4,33.9,101.3,33.9,101.2,33.9z"/>
		</g>
	</g>
</g>
</svg>
