<?xml version="1.0" encoding="utf-8"?>
<!-- Generator: Adobe Illustrator 19.0.0, SVG Export Plug-In . SVG Version: 6.00 Build 0)  -->
<svg version="1.1" id="Camada_1" xmlns="http://www.w3.org/2000/svg" xmlns:xlink="http://www.w3.org/1999/xlink" x="0px" y="0px"
	 viewBox="0 0 125.6 59.3" style="enable-background:new 0 0 125.6 59.3;" xml:space="preserve">
<g id="XMLID_334_">
	<g id="XMLID_339_">
		<g id="XMLID_341_">
			<path id="XMLID_48_" d="M33.4,43.2c-0.9,0-1.8-0.6-2.1-1.4l-1.7-4.3c-0.3-0.6-0.2-1.3,0.1-1.8c-3.1-10.5-7.8-20.4-14-29.5
				c-0.1-0.1-0.2-0.2-0.2-0.3c-0.1,0.3-0.2,0.7-0.2,1.2l-3.3,30c-0.1,1.3-1.3,2.2-2.5,2c-1.3-0.1-2.2-1.3-2-2.5l3.3-30
				c0.4-3.6,2.3-5.8,4.9-5.6c2.2,0.1,3.4,2,3.9,2.7c7.6,11.3,13,23.6,16.2,36.8c0.3,1.2-0.4,2.4-1.5,2.7
				C33.8,43.2,33.6,43.2,33.4,43.2z"/>
		</g>
		<g id="XMLID_340_">
			<path id="XMLID_47_" d="M33.5,25.1c-0.1,0-0.3,0-0.4,0C23,23.3,12.8,23.1,2.6,24.6c-1.3,0.2-2.4-0.7-2.6-2s0.7-2.4,2-2.6
				c10.6-1.5,21.3-1.4,31.9,0.5c1.3,0.2,2.1,1.4,1.9,2.7C35.5,24.3,34.6,25.1,33.5,25.1z"/>
		</g>
	</g>
	<g id="XMLID_338_">
		<path id="XMLID_46_" d="M55.7,43.6c-0.7,0-1.3-0.3-1.8-0.8l-1.1-1.4c-0.8-0.9-0.7-2.3,0.2-3.1c-1.5-11.7-2.8-23.4-3.7-35.1
			c-0.1-1.3,0.8-2.4,2.1-2.5c1.3-0.1,2.4,0.8,2.5,2.1C54.9,15.4,56.3,28.3,58,41c0.1,1-0.4,2-1.4,2.4C56.4,43.5,56,43.6,55.7,43.6z"
			/>
	</g>
	<g id="XMLID_337_">
		<path id="XMLID_45_" d="M73.5,59.3c-1.2,0-2.2-0.9-2.3-2.1l-2.3-31.4c-0.4-5.4-0.8-11.6-4-16.2c-1.6-2.4-4.4-4.3-7.2-4.8
			c-1.4-0.3-3.4-0.3-5.2,0.9c-1.1,0.7-2.5,0.4-3.2-0.6c-0.7-1.1-0.4-2.5,0.6-3.2c2.5-1.7,5.5-2.2,8.7-1.6c4,0.8,7.8,3.3,10.1,6.7
			c3.8,5.6,4.3,12.7,4.7,18.4l2,27.9c0.3,0.4,0.4,0.9,0.4,1.4l-0.1,2.5C75.7,58.4,74.7,59.3,73.5,59.3
			C73.5,59.3,73.5,59.3,73.5,59.3z"/>
	</g>
	<g id="XMLID_336_">
		<path id="XMLID_44_" d="M55.9,21.2c-2.2,0-4.5-0.1-6.7-0.2c-1.3-0.1-2.2-1.2-2.1-2.5c0.1-1.3,1.2-2.2,2.5-2.1
			c9.5,0.6,19.1-0.1,28.3-2.3c1.2-0.3,2.5,0.5,2.8,1.7c0.3,1.2-0.5,2.5-1.7,2.8C71.4,20.3,63.7,21.2,55.9,21.2z"/>
	</g>
	<g id="XMLID_335_">
		<path id="XMLID_3_" d="M106.6,55c-2.3,0-4.7-0.6-6.7-2.1c-4-2.8-5.5-7.6-6.3-12.3c-0.9-0.3-1.6-1.1-1.6-2.1
			c-0.1-2.6-0.1-5.2,0.1-7.8l0-0.3c-0.1-0.4,0-0.9,0.1-1.2c0.3-4.1,0.9-8.1,1.8-12.1c0.5-2.4,1.3-4.8,3.5-6.2
			c2.2-1.5,4.9-1.3,6.6-1.2c7.3,0.5,17.4,2,20.6,10.2c1.3,3.5,0.9,7.2,0.5,10.2c-0.8,6.8-1.9,13.3-5.9,18.5
			C116.4,52.3,111.4,55,106.6,55z M96.7,30.5l1.1,7.3c0.7,4.5,1.7,9.1,4.8,11.3c4,2.8,10.1,0.4,13-3.5c3.3-4.3,4.2-10.2,5-16.3
			c0.4-3,0.6-5.7-0.3-7.9c-1.7-4.3-6.9-6.6-16.5-7.2c-1.5-0.1-2.9-0.1-3.7,0.4c-0.9,0.6-1.3,2-1.6,3.5
			C97.5,22.2,96.9,26.3,96.7,30.5z"/>
	</g>
</g>
</svg>
