<?xml version="1.0" encoding="utf-8"?>
<!-- Generator: Adobe Illustrator 19.0.0, SVG Export Plug-In . SVG Version: 6.00 Build 0)  -->
<svg version="1.1" id="Camada_1" xmlns="http://www.w3.org/2000/svg" xmlns:xlink="http://www.w3.org/1999/xlink" x="0px" y="0px"
	 viewBox="0 0 209.8 29.6" style="enable-background:new 0 0 209.8 29.6;" xml:space="preserve">
<g id="XMLID_4_">
	<path id="XMLID_18_" d="M84.5,29.6c-0.6,0-1.2-0.1-1.8-0.3c-0.5-0.1-1-0.3-1.4-0.6c-2.4,0.4-5.1-0.2-7.2-1.9
		c-0.3,0.2-0.6,0.5-1,0.6c-1.7,0.8-3.5,0.2-4.4-0.1c-3.2-1.1-7.2-2.7-10.1-5.8c-0.2-0.2-0.4-0.4-0.5-0.6c-3.1,1.4-6.6,1.7-9.7,0.8
		c-2.1-0.6-4-1.8-5.7-3.2c-1.2,1.9-2.9,3.5-4.9,4.6c-4.9,2.8-11.5,2.1-15.8-1.3c-2.9,4.2-8.2,7.2-13.3,5.4c-5-1.8-7.4-7.2-7.9-11.7
		c-0.3-2.1-0.2-4.1-0.2-6.1c0-2.1,0-4.2-0.3-6.1C0,2,0.9,0.8,2.1,0.6c1.3-0.2,2.4,0.7,2.6,1.9c0.4,2.3,0.4,4.6,0.3,6.9
		c0,1.9,0,3.7,0.2,5.5c0.4,3.1,1.9,6.8,4.9,7.9c3.3,1.2,7.1-1.5,8.6-4.7c-2.7-4.8-2.3-11.3,1.4-15.5c0.6-0.7,1.5-1,2.4-0.7
		c0.9,0.3,1.5,1,1.6,1.9c0.6,4.5,1,9.2-0.2,13.6c2.8,3,7.9,3.8,11.6,1.7c1.7-1,3.1-2.5,4-4.3c-2-3.1-3.2-6.8-3.3-10.8
		c0-1,0.6-1.9,1.5-2.2c1.2-0.4,2.5-0.3,3.7,0.3c1.9,1,3.1,3.3,3.4,4.8c0.6,2.4,0.5,4.8-0.1,7.1c1.3,1.5,3,2.7,5,3.3
		c1.9,0.6,4.1,0.4,6-0.4c-0.9-2.6-0.9-5.3,0.1-7.6c0.9-2.2,3.4-3.9,5.7-3.9c0,0,0,0,0,0c1.7,0,3.2,0.9,3.8,2.5
		c0.3,0.8,0.4,1.5,0.4,2.1c0,3.1-1.4,6.1-3.8,8.4c0,0,0,0,0,0c2.2,2.3,5.4,3.6,8.2,4.6c0.6,0.2,0.9,0.3,1,0.3c0,0,0.1-0.1,0.1-0.1
		c-0.8-1.9-1.2-4.1-1-6.3c0.2-1.7,1.1-3.9,2.9-4.9c1.1-0.6,2.4-0.7,3.6-0.2c0.8,0.4,1.3,1.2,1.3,2.1c0,3.1-0.5,6.1-1.6,9
		c0.1,0.1,0.2,0.2,0.3,0.3c0.3,0.3,0.7,0.5,1.1,0.7c-0.3-3.1,1.5-6.4,4.5-7.8c0.8-0.4,1.7-0.3,2.4,0.3c0.8,0.7,1.5,1.5,1.9,2.5
		c1.3,0.6,2.4,1.8,2.9,3.4c0.1,0.4,0.2,0.9,0.3,1.3c1.3-0.5,2.3-2.1,2.4-3.5c0-0.5,0-1-0.1-1.4C90.9,17,90,15,89.7,13
		c-0.2-1,0.4-2.1,1.4-2.5c1-0.4,2.1-0.1,2.7,0.7c1.3,1.7,2.2,3.4,2.7,5.2c0.4,0.4,0.9,0.8,1.4,1.1c2,1.3,4.3,1.7,6.3,1.2
		c0.2-0.1,0.5-0.1,0.7-0.2c-0.1-0.2-0.2-0.4-0.3-0.6c-2.1-4.2-2.2-8.8-0.1-12.5c0.9-1.7,2.1-2.7,3.5-3c2.9-0.7,5.3,1.6,6.2,4.3
		c1.1,3.2,0.7,6.9-1,10.1c-0.5,0.9-1.1,1.8-1.8,2.6c1.4,1.3,3.1,2.1,4.9,2.4c3.5,0.5,7.3-1,10-3.6c-0.8-1.2-1.5-2.6-1.9-4.1
		c-1.5-4.9-0.6-9.8,2.4-13.3c0.5-0.6,1.4-0.9,2.2-0.8c4.8,1,6.8,6.7,5.9,11.6c-0.4,2.3-1.3,4.5-2.6,6.5c0.8,0.6,1.7,1.1,2.6,1.3
		c2.8,0.8,6-0.1,8.5-2.3c-1.9-3-2.7-6.5-2.1-9.7c0.5-2.8,2.3-4.8,4.5-5c3.1-0.3,5.2,2.5,5.7,5.4c0.5,3.2-0.2,6.5-2,9.3
		c1.8,1.5,4,2.2,6.1,2.1c2.6-0.2,5.1-1.8,6.8-4.3c0.1-0.1,0.1-0.2,0.2-0.3c-0.4-0.3-0.8-0.5-1.2-0.8c-1.8-1.3-3.9-3.1-4.7-5.8
		c-0.5-1.7-0.2-3.7,0.8-5.2c0.8-1.3,2.1-2.2,3.5-2.4c3.4-0.5,6,2.3,7,5.1c0.8,2.3,0.9,4.8,0.3,7.2c0.8,0.4,1.7,0.8,2.6,1.2
		c0.8,0.3,1.5,0.6,2.2,0.7c0.2-2.1,1-4,2.4-5.4c0.6-0.6,1.5-0.8,2.4-0.6c1.8,0.6,2.9,2.1,3.1,4.1c0.2,2.2-0.9,4.5-2.6,5.6
		c0.7,1.5,2.2,3.1,4.2,3.1c0,0,0,0,0,0c2.2,0,3.7-1.9,4.4-3.4c0-0.1,0.1-0.2,0.1-0.4c-1-1-1.7-2.4-2-3.9c-0.2-1.6,0.1-3.1,1.1-4.3
		c0.4-0.5,1-0.8,1.7-0.9c0.7,0,1.3,0.2,1.8,0.7c1.5,1.6,2.4,3.7,2.4,6c0.9,0.2,2,0.2,3.3,0.1c3.2-0.3,5.7-1.3,7.4-2.8
		c1.4-1.2,2.2-2.9,2.3-4.5c-0.6,0.1-1.2-0.1-1.7-0.5c-1-0.8-1.2-2.2-0.4-3.2c0.7-0.9,1.8-1.4,3-1.4c1.2,0,2.3,0.6,2.9,1.5
		c0.1,0.2,0.3,0.4,0.3,0.7c1.2,3.7-0.2,8.1-3.5,10.9c-2.5,2.2-5.8,3.5-10,3.9c-1.8,0.2-3.3,0.1-4.7-0.2c0,0,0,0,0,0
		c-1.6,3.8-5,6.3-8.6,6.3c0,0,0,0,0,0c-3.6,0-7-2.5-8.6-6.3c-0.1-0.1-0.1-0.2-0.1-0.4c-2.1-0.1-3.9-0.9-4.7-1.2
		c-0.9-0.4-1.7-0.8-2.5-1.2c-0.1,0.2-0.2,0.3-0.3,0.5c-2.4,3.7-6.3,6.1-10.3,6.3c-3.3,0.2-6.7-0.9-9.4-3.2
		c-3.8,3.3-8.5,4.5-12.8,3.3c-1.6-0.4-3.1-1.2-4.3-2.2c-3.7,3.5-8.8,5.5-13.8,4.8c-2.9-0.4-5.7-1.9-7.9-4.1
		c-0.8,0.4-1.6,0.7-2.5,0.9c-2.8,0.7-6,0.3-8.7-1.1c-0.9,3.3-3.6,5.8-6.7,6.2c-0.6,0.1-1.1,0-1.7,0c-0.1,0-0.1,0.1-0.2,0.1
		C87,29.2,85.8,29.6,84.5,29.6z M109,7c-0.1,0.1-0.3,0.3-0.5,0.7c-1.2,2.3-1.2,5.1,0.1,7.9c0.2-0.3,0.4-0.6,0.6-0.9
		c1.1-2.1,1.4-4.4,0.7-6.4C109.6,7.6,109.3,7.2,109,7z M129.3,5.3c-1.1,2.1-1.3,4.8-0.5,7.5c0.1,0.5,0.3,0.9,0.5,1.3
		c0.5-1,0.9-2.2,1.1-3.3C130.8,8.8,130.4,6.5,129.3,5.3z M61.2,10.2c-0.4,0.2-0.9,0.5-1.1,1C59.7,12,59.6,13,59.8,14
		C60.6,12.8,61.1,11.5,61.2,10.2z M146.5,7c-0.1,0.2-0.3,0.6-0.5,1.2c-0.3,1.5-0.1,3.2,0.6,4.8c0.6-1.5,0.8-3,0.6-4.5
		C147.1,7.8,146.8,7.2,146.5,7z M162,4.9C162,4.9,161.9,4.9,162,4.9c-0.2,0-0.4,0.2-0.5,0.3c-0.3,0.4-0.4,1-0.2,1.5
		c0.4,1.3,1.7,2.5,2.9,3.3c0.1-1.1-0.1-2.1-0.4-3.1C163.4,5.7,162.5,4.9,162,4.9z"/>
</g>
</svg>
