<?xml version="1.0" encoding="utf-8"?>
<!-- Generator: Adobe Illustrator 19.0.0, SVG Export Plug-In . SVG Version: 6.00 Build 0)  -->
<svg version="1.1" id="Camada_1" xmlns="http://www.w3.org/2000/svg" xmlns:xlink="http://www.w3.org/1999/xlink" x="0px" y="0px"
	 viewBox="0 0 163.9 155" style="enable-background:new 0 0 163.9 155;" xml:space="preserve">
<style type="text/css">
	.st0{clip-path:url(#XMLID_35_);fill:#BBEEFF;}
	.st1{clip-path:url(#XMLID_35_);}
	.st2{fill:#FFCC66;}
	.st3{fill:#FFECB6;}
	.st4{fill:#1A1A1A;}
	.st5{fill:#CCCCCC;}
	.st6{fill:#F7931E;}
	.st7{fill:none;stroke:#FFCC66;stroke-width:0.8318;stroke-linecap:round;stroke-linejoin:round;stroke-miterlimit:10;}
	.st8{fill:none;stroke:#000000;stroke-width:0.8318;stroke-miterlimit:10;}
	.st9{fill:none;stroke:#1A1A1A;stroke-width:1.6637;stroke-linecap:round;stroke-linejoin:round;stroke-miterlimit:10;}
	.st10{fill:#FF6666;}
</style>
<g>
	<defs>
		<path id="XMLID_2_" d="M86.5,155h-9C34.7,155,0,120.3,0,77.5v0C0,34.7,34.7,0,77.5,0h9c42.8,0,77.5,34.7,77.5,77.5v0
			C163.9,120.3,129.3,155,86.5,155z"/>
	</defs>
	<clipPath id="XMLID_35_">
		<use xlink:href="#XMLID_2_"  style="overflow:visible;"/>
	</clipPath>
	<path id="XMLID_33_" class="st0" d="M86.5,155h-9C34.7,155,0,120.3,0,77.5v0C0,34.7,34.7,0,77.5,0h9c42.8,0,77.5,34.7,77.5,77.5v0
		C163.9,120.3,129.3,155,86.5,155z"/>
	<g class="st1">
		<g id="XMLID_32_">
			<path id="XMLID_51_" class="st2" d="M127,190c-2.7,2.6-5.3,5.4-7.9,8.1c-2.6,2.7-5.2,5.5-7.7,8.4l0,0c0,0,0,0-0.1,0.1l-0.6,0.3
				c-0.2,0.1-0.4,0.2-0.6,0.3c-0.4,0.1-0.8,0.3-1.3,0.4c-0.4,0.1-0.9,0.2-1.3,0.2c-0.2,0-0.4,0-0.7,0c-0.2,0-0.4,0-0.7-0.1
				c-0.2,0-0.4-0.1-0.7-0.1c-0.2-0.1-0.4-0.1-0.6-0.2c-0.4-0.2-0.8-0.3-1.2-0.6c-0.4-0.2-0.7-0.5-1.1-0.7c-0.3-0.3-0.7-0.6-1-0.9
				c0,0,0,0,0,0l0,0l-0.7-1.3c-0.2-0.4-0.5-0.8-0.7-1.2c-0.1-0.2-0.2-0.4-0.4-0.6l-0.4-0.6c-0.3-0.4-0.6-0.7-1-1l-0.6-0.4
				c-0.2-0.2-0.4-0.2-0.6-0.3c-0.2-0.1-0.4-0.2-0.6-0.2c-0.2-0.1-0.4,0-0.6-0.1c-0.2,0-0.4,0-0.6,0.1c-0.2,0.1-0.4,0.1-0.6,0.3
				c-0.2,0.1-0.4,0.2-0.5,0.4c-0.2,0.1-0.3,0.3-0.4,0.5l0,0l0,0c-0.7,0.8-1.6,1.5-2.5,2c-0.4,0.3-0.9,0.6-1.4,0.8
				c-0.5,0.2-0.9,0.5-1.5,0.7l0,0l0,0l-1.3,0.4c-0.4,0.2-0.8,0.3-1.3,0.5c-0.4,0.2-0.8,0.4-1.2,0.6c-0.4,0.2-0.8,0.4-1.1,0.7
				c-0.2,0.1-0.4,0.3-0.5,0.4c-0.2,0.1-0.3,0.3-0.5,0.4c-0.3,0.3-0.6,0.6-0.9,1c-0.2,0.4-0.5,0.7-0.7,1.1c-0.1,0.2-0.2,0.4-0.2,0.6
				c-0.1,0.2-0.1,0.4-0.1,0.6c0,0.1-0.1,0.2-0.2,0.3l0,0L80,211c-0.2,0.1-0.3,0.2-0.5,0.4c-0.1,0.1-0.3,0.2-0.4,0.4l-0.4,0.5
				l-0.3,0.5c-0.1,0.2-0.2,0.4-0.2,0.5c-0.1,0.2-0.1,0.4-0.2,0.6c0,0.2-0.1,0.4-0.1,0.6c-0.1,0.4-0.1,0.8-0.1,1.2c0,0.4,0,0.8,0,1.2
				c0,0.8,0.1,1.6,0.3,2.4l0,0l0,0l0.1,0.7c0,0.2,0.1,0.4,0.2,0.6c0.1,0.4,0.3,0.8,0.5,1.2l0.4,0.6c0.1,0.2,0.3,0.4,0.4,0.5
				c0.1,0.2,0.3,0.4,0.5,0.5c0.2,0.2,0.3,0.3,0.5,0.5c0.7,0.6,1.4,1.2,2.2,1.6c0.8,0.5,1.6,0.9,2.5,1.3c-0.9-0.3-1.7-0.7-2.5-1.2
				c-0.8-0.5-1.6-1-2.3-1.6c-0.2-0.1-0.3-0.3-0.5-0.5c-0.2-0.2-0.3-0.3-0.5-0.5c-0.2-0.2-0.3-0.3-0.5-0.5l-0.4-0.6
				c-0.2-0.4-0.5-0.8-0.6-1.3c-0.1-0.2-0.2-0.4-0.2-0.7l-0.1-0.7l0,0c-0.2-0.8-0.3-1.6-0.4-2.5c0-0.4,0-0.8,0-1.3
				c0-0.4,0.1-0.8,0.1-1.3c0-0.2,0.1-0.4,0.1-0.6c0-0.2,0.1-0.4,0.2-0.6c0.1-0.2,0.1-0.4,0.2-0.6l0.3-0.6l0.4-0.5
				c0.1-0.2,0.3-0.3,0.5-0.5c0.2-0.2,0.3-0.3,0.5-0.4l0.5-0.4l-0.2,0.3c0-0.3,0.1-0.5,0.1-0.8c0.1-0.2,0.1-0.5,0.2-0.7
				c0.2-0.5,0.4-0.9,0.7-1.3c0.3-0.4,0.6-0.8,0.9-1.1c0.2-0.2,0.4-0.3,0.5-0.5c0.2-0.2,0.4-0.3,0.6-0.4c0.4-0.3,0.8-0.5,1.2-0.8
				c0.4-0.2,0.8-0.4,1.3-0.6c0.4-0.2,0.9-0.3,1.3-0.5l1.3-0.4l0,0c0.5-0.2,0.9-0.4,1.4-0.6c0.4-0.2,0.9-0.5,1.3-0.8
				c0.8-0.6,1.6-1.2,2.3-1.9l0,0c0.2-0.2,0.4-0.4,0.6-0.6c0.2-0.2,0.4-0.3,0.7-0.5c0.2-0.1,0.5-0.3,0.8-0.3c0.3-0.1,0.6-0.1,0.8-0.1
				c0.3,0,0.6,0,0.8,0.1c0.3,0.1,0.5,0.1,0.8,0.3c0.2,0.1,0.5,0.2,0.7,0.4l0.6,0.5c0.3,0.4,0.8,0.7,1,1.1l0.5,0.6
				c0.2,0.2,0.3,0.4,0.4,0.6c0.3,0.4,0.6,0.8,0.8,1.3l0.7,1.3l0-0.1c0.2,0.3,0.5,0.6,0.8,0.8c0.3,0.3,0.6,0.5,1,0.7
				c0.3,0.2,0.7,0.4,1.1,0.5c0.2,0.1,0.4,0.1,0.6,0.2c0.2,0.1,0.4,0.1,0.6,0.1c0.2,0,0.4,0.1,0.6,0.1c0.2,0,0.4,0,0.6,0
				c0.4,0,0.8-0.1,1.2-0.2c0.4-0.1,0.8-0.2,1.1-0.4c0.2-0.1,0.4-0.2,0.5-0.3l0.5-0.3l-0.1,0.1c2.6-2.8,5.2-5.5,7.9-8.2
				C121.4,195.2,124.2,192.6,127,190z"/>
		</g>
		<path id="XMLID_31_" class="st3" d="M28.2,140.7c-4.1-6.2-7.9-11.1-7.9-11.1c8.2-20.7,18.4-34.4,18.4-34.4
			c17.9-9.7,22.8-19.1,24.1-25.8c3.8-19.7,30.9-6.4,31.8-3.5c2.4,7.5,0.4,17.1,8.5,21.8c9.9,5.7,19.9,6.5,19.9,6.5
			c-0.2,3.2,1,8.4,2.6,13.7C125.7,107.9,109.8,169.9,28.2,140.7z"/>
		<path id="XMLID_30_" class="st4" d="M23.8,110.6c-2.3,4.2-5.2,10.3-5.7,15.9c0,0,15.5,18.7,17.7,29.6c0,0-0.4,8.9,1.9,17.4
			c1.5,5.7,0.8,11.7-2,16.9c-2.3,4.4-4.6,10.2-4.9,16.4c-0.1,2.4-0.8,4.8-1.8,7.1c-5,11.1-14.4,44.7,4.5,69.6c0,0,52.7-0.5,115.7-56
			c0,0-1.1-3.7-3.1-11.3c-2.1-22-3.8-28-7-38.8c-1.1-3.8,1-12,2.7-15.6c3-5.9,5-17.5-9.5-34.7c0,0-9.7-24.2-9.2-32.9
			c0,0-5.8-2.7-14-4.6c0,0,5.3,37.1-29.3,46.2C79.8,135.8,54.5,143.9,23.8,110.6z"/>
		<g id="XMLID_29_">
			<path id="XMLID_49_" class="st5" d="M139.2,170.8c0.2-2,0.6-3.9,1.1-5.9c0.3-1,0.6-1.9,1-2.9c0.4-0.9,0.8-1.8,1.1-2.7
				c0.1-0.5,0.3-0.9,0.4-1.4c0.1-0.5,0.2-0.9,0.3-1.4c0.1-0.9,0.3-1.9,0.3-2.9c0.1-1,0-1.9-0.1-2.9c-0.1-1-0.2-1.9-0.5-2.8
				c-0.1-0.5-0.2-0.9-0.3-1.4l-0.4-1.4c-0.2-0.9-0.6-1.8-1-2.7c-0.3-0.9-0.8-1.8-1.2-2.7c-0.4-0.9-0.9-1.7-1.4-2.6
				c-0.4-0.9-1-1.7-1.5-2.5c-0.5-0.8-1.1-1.6-1.6-2.4c-0.6-0.8-1.1-1.6-1.7-2.4l-1.8-2.3l-0.1-0.1l0-0.1c-0.9-2.5-1.8-5-2.6-7.5
				c-0.8-2.5-1.6-5.1-2.2-7.7c1,2.5,1.9,4.9,3,7.4c1,2.5,2,4.9,3,7.3l-0.1-0.2l1.9,2.3c0.7,0.8,1.2,1.6,1.8,2.4
				c0.6,0.8,1.2,1.6,1.7,2.5c0.5,0.9,1.1,1.7,1.6,2.6c0.5,0.9,1,1.7,1.4,2.7c0.4,0.9,0.9,1.8,1.2,2.8c0.3,1,0.7,1.9,1,2.9l0.4,1.5
				c0.1,0.5,0.2,1,0.3,1.5c0.2,1,0.3,2,0.4,3c0,1,0.1,2,0,3.1c0,1-0.2,2-0.4,3c-0.2,1-0.5,2-0.9,2.9c-0.4,1-0.8,1.9-1.3,2.7
				c-0.4,0.9-0.8,1.8-1.2,2.7C140.2,166.9,139.7,168.8,139.2,170.8z"/>
		</g>
		<path id="XMLID_28_" class="st4" d="M132.4,134.2c0,0-23.8-45.8-9.6-40c0,0,28.1,5.3,59.8,71.5c0,0,1.6,2.6,2,6.6
			c-9.1-3.5-19.7-4.3-28.8-3.2C154.1,167.1,140.8,150.4,132.4,134.2z"/>
		<path id="XMLID_27_" class="st6" d="M104.1,87.9c11.4,0.9,26.2,8.1,36.4,16.5l0,0c6.9,4.4,14.3,13.7,20.8,23.6
			c0,0-129.1,37.9-137.4-17.4c2-2.5,4.1-5.7,6.5-8.1c2.7-2.6,3.5-3.4,6-5.5c0.3-0.3,1.9-1.5,2.4-1.9
			C38.8,95.2,90.6,122.5,104.1,87.9z"/>
		<g>
			<path id="XMLID_26_" class="st3" d="M49.1,51.3c0.3,2.1,2.1,10.7,2.7,15.8c0.4,3.7,2,7.3,4.6,10c3.3,3.5,7,5.3,8.9,6.1
				c0.7,0.3,1.4,0.5,2.1,0.6c4.7,0.9,8.4,1.9,8.4,1.9c8.6,3.2,13.4,0.4,13.4,0.4c2.6-1.1,8.6-4.3,8.6-4.3c7-4.6,8.2-11.3,8.4-14.7
				c0-1.1-0.1-2.1-0.4-3.1c-1.4-5.1-0.4-12.4,0.5-17c1.3-6.6,0.1-13.4-3.8-18.9c-3-4.2-7.8-8.3-15.5-10.6c0,0-25.2-6.6-35.8,17.4
				C51.3,35,47.7,41.2,49.1,51.3z"/>
			<circle id="XMLID_25_" class="st4" cx="70.7" cy="59.5" r="2.3"/>
			<circle id="XMLID_24_" class="st4" cx="91.3" cy="57.8" r="2.3"/>
			<path id="XMLID_23_" class="st7" d="M88.4,66.9c0,0-1.2,2.7-8.8,1.7"/>
			<path id="XMLID_22_" class="st8" d="M98.8,38.9"/>
			<g id="XMLID_21_">
				<path id="XMLID_47_" class="st2" d="M51.3,35c-0.6,1.2-1,2.5-1.4,3.8c-0.3,1.3-0.6,2.7-0.7,4c-0.1,1.4-0.2,2.7-0.2,4.1
					c0,1.4,0.2,2.7,0.3,4.1c0.2,1.3,0.5,2.7,0.8,4l0.8,4c0.5,2.7,1,5.4,1.3,8.1c0.2,1.3,0.5,2.6,0.9,3.9c0.5,1.3,1,2.5,1.8,3.6
					c0.7,1.1,1.6,2.1,2.6,3.1c1,0.9,2,1.8,3.1,2.6c1.1,0.8,2.3,1.5,3.5,2.1c1.2,0.6,2.4,1.1,3.8,1.3c2.7,0.5,5.4,1.2,8,1.9l0,0l0,0
					c2.5,1,5.1,1.6,7.8,1.7c-2.7,0.1-5.4-0.5-7.9-1.3l0,0c-2.6-0.7-5.3-1.3-8-1.7c-1.4-0.2-2.7-0.7-4-1.3c-1.3-0.6-2.5-1.3-3.6-2.1
					c-1.2-0.8-2.2-1.7-3.2-2.6c-1-0.9-1.9-2-2.7-3.2c-0.8-1.2-1.4-2.4-1.9-3.7c-0.5-1.3-0.8-2.7-0.9-4.1c-0.3-2.7-0.7-5.4-1.2-8.1
					l-0.7-4c-0.2-1.3-0.5-2.7-0.7-4.1c-0.2-1.4-0.3-2.8-0.2-4.1c0-1.4,0.1-2.8,0.3-4.1c0.2-1.4,0.5-2.7,0.9-4
					C50.2,37.4,50.7,36.2,51.3,35z"/>
			</g>
			<path id="XMLID_20_" class="st4" d="M36.1,64.4c8.8,0.3,17.7-3.7,23.2-10.7l0,0c-0.4,1.6-0.9,3.3-1.6,4.8c-0.2,0.5,0.3,1,0.8,0.7
				c6.6-3.1,12.5-7.6,17.2-13.2c0.2,0.8-0.1,1.6-0.4,2.3c-0.9,2-1.8,4-3.1,5.8c-0.3,0.5,0.2,1.1,0.7,0.8c3.9-1.7,7.8-3.8,10.3-7.2
				c1-1.3,1.7-2.8,2.5-4.3c1.5-2.7,3.2-5.2,5-7.7c0.7-0.9,1.5-1.9,2.8-1.8c1.1,0.1,1.9,0.9,2.2,1.9c0.5,1.6-0.2,3.2-0.9,4.7
				c1.2-2.3,3-4.4,5-6c0.6-0.5,1.3-1,2-1.1c0.8-0.2,1.7,0,2.2,0.5c0.4,0.4,0.5,1,0.6,1.6c0.5,2.9,0.3,5.9,0.8,8.8
				c0.4,2.2,1.3,4.5,2.9,6c0.4,0.4,1-0.1,0.8-0.6c-1.4-3.1-1.3-5.9-0.8-9.5l0,0c0.4,2.3,1.9,2.7,3.4,2.7c0.2-0.3,0.3-0.4,0.5-0.7
				c-3.1-6.2-0.5-15.5-3.1-22c-0.7-1.8-2.5-3-4.4-3.3c-1.9-0.3-4,0.7-4.6,2.5l0,0c-2-4.9-6.3-9.2-11.1-11.5
				c-4.8-2.3-10.4-2.7-15.5-1.1c-2.7,0.9-5.3,2.2-8,3.1c-5.9,1.9-12.6,1.4-18.1-1.5l0,0c0.3,2.8,1.2,5.2,3.5,6.8l0,0
				c-2.1-0.6-5-0.3-6.8,0.9c-1.8,1.2-3.3,2.8-5,4.3c-3.5,3.1-7.9,5.4-12.5,5.3c-0.4,0-0.6,0.4-0.4,0.7c2.6,4.2,7.6,6.8,12.5,6.5l0,0
				c-1.3,3.8-5.8,7.2-7.9,8.2c-0.4,0.2-0.3,0.7,0,0.8c2.3,0.9,6.6,1.5,10.4-0.7l0,0c-3.1,5-8.3,9.1-14,10.8c0,0.4,0,0.4-0.1,0.8
				c2.3,1.2,4.6,2,7.2,1.8c2.9-0.2,5.8-1.5,7.5-3.8c0.1,0.1,0.1,0.1,0.2,0.1c-0.3,1.7-1,3.3-1.8,4.8c-1.6,2.8-2.3,5.9-4.6,7.7
				C36,64,36,64,36.1,64.4z"/>
			<g>
				<line id="XMLID_19_" class="st9" x1="79.3" y1="56" x2="84.7" y2="55.5"/>
				<line id="XMLID_18_" class="st9" x1="100.1" y1="54.3" x2="105.4" y2="53.8"/>
				<line id="XMLID_17_" class="st9" x1="50.8" y1="58.3" x2="63.9" y2="57.2"/>
				<g>
					<path id="XMLID_16_" class="st9" d="M72.4,65.6l-4,0.3c-2.7,0.2-5-1.8-5.2-4.4l-0.1-0.9c-0.2-2.6,1.7-4.8,4.3-5l9.4-0.8
						c1.4-0.1,2.5,0.9,2.7,2.2l0,0.3C79.8,61.5,76.7,65.3,72.4,65.6z"/>
					<path id="XMLID_15_" class="st9" d="M93.1,63.9l4-0.3c2.7-0.2,4.7-2.6,4.4-5.2l-0.1-0.9c-0.2-2.6-2.5-4.5-5-4.3L87,53.9
						c-1.4,0.1-2.4,1.3-2.2,2.7l0,0.3C85.1,61.1,88.9,64.3,93.1,63.9z"/>
				</g>
			</g>
			
				<ellipse id="XMLID_14_" transform="matrix(-0.9939 -0.1101 0.1101 -0.9939 158.3006 160.5734)" class="st4" cx="83.6" cy="75.9" rx="5.5" ry="2.4"/>
			
				<ellipse id="XMLID_13_" transform="matrix(-0.9704 -0.2414 0.2414 -0.9704 142.9038 170.644)" class="st10" cx="81.9" cy="76.6" rx="3.8" ry="1.5"/>
			<path id="XMLID_12_" class="st3" d="M49.5,68.5c0,0,7.6,7.7,5.8-3.1c0,0-0.5-5.1-4.3-8.4c-2.4-2.1-6.2-0.2-6,3
				C45.2,62.2,46.3,65,49.5,68.5z"/>
		</g>
		<path id="XMLID_11_" class="st4" d="M96.4,170.5c0,0-48.6-41.9-78.3-44c0,0-5.1,19.3,21.9,52.3c0,0,49.1,28,73,9.2
			C113,188,111.2,181.8,96.4,170.5z"/>
		<g id="XMLID_10_">
			<path id="XMLID_45_" class="st5" d="M50.2,141.9c0,0,3.9,1.4,9.6,4.1c2.8,1.3,6.1,3,9.5,4.8c1.7,1,3.5,1.9,5.3,2.9
				c1.8,1.1,3.6,2.1,5.3,3.2c1.8,1.1,3.5,2.2,5.2,3.4c1.7,1.1,3.4,2.3,5,3.4c0.8,0.6,1.6,1.1,2.3,1.7c0.7,0.6,1.5,1.1,2.2,1.7
				c1.4,1.1,2.8,2.1,4,3.1c1.2,1,2.3,1.9,3.3,2.8c0.9,0.8,1.8,1.6,2.4,2.2c1.3,1.3,2.1,2,2.1,2s-0.9-0.6-2.4-1.6
				c-0.7-0.5-1.6-1.2-2.7-1.9c-1-0.7-2.2-1.5-3.5-2.4c-1.3-0.9-2.7-1.8-4.2-2.8c-1.5-1-3-2-4.7-3.1c-0.8-0.5-1.6-1.1-2.5-1.6
				c-0.8-0.5-1.7-1.1-2.6-1.6c-1.7-1.1-3.5-2.2-5.2-3.3c-1.7-1.1-3.5-2.2-5.3-3.2c-1.7-1.1-3.5-2.1-5.1-3.1c-1.7-1-3.3-1.9-4.8-2.8
				c-1.5-0.9-3-1.7-4.3-2.5C53.8,143.9,50.2,141.9,50.2,141.9z"/>
		</g>
		<path id="XMLID_9_" class="st4" d="M93,186c-5.2-14.4-1.5-24.3-0.6-35.2c8.6,5.7,18.1,9.4,27.6,9.2c1.2,6,1.1,9.4,1.1,9.4
			c-1,19.8-8.5,20.6-17.1,23.4C101.6,193.5,93,186,93,186z"/>
		<g id="XMLID_8_">
			<path id="XMLID_43_" class="st5" d="M91.5,182c0,0-0.3-0.4-0.6-1.3c-0.2-0.4-0.3-0.9-0.5-1.5c-0.2-0.6-0.3-1.3-0.5-2
				c-0.2-0.7-0.3-1.5-0.4-2.4c-0.1-0.9-0.2-1.8-0.2-2.7c0-0.9-0.1-1.9-0.1-2.9c0-1,0.1-2,0.1-3c0.1-1,0.2-2,0.3-3
				c0.1-1,0.2-1.9,0.4-2.8c0.3-1.8,0.6-3.5,1-5c0.3-1.4,0.7-2.6,0.9-3.5c0.2-0.8,0.4-1.3,0.4-1.3s0,0.5-0.1,1.4
				c-0.1,0.9-0.2,2.1-0.3,3.6c-0.1,0.7-0.1,1.5-0.2,2.4c-0.1,0.8-0.1,1.7-0.2,2.6c-0.1,0.9-0.2,1.9-0.2,2.8c-0.1,1-0.2,1.9-0.2,2.9
				c-0.1,1-0.1,1.9-0.2,2.9c0,0.5,0,1-0.1,1.4c0,0.5,0,0.9,0,1.4c0,0.9,0,1.8,0,2.6c0,0.8,0,1.6,0.1,2.4c0.1,1.5,0.2,2.7,0.3,3.5
				C91.4,181.5,91.5,182,91.5,182z"/>
		</g>
		<path id="XMLID_7_" class="st4" d="M78.1,162.5c0,0-0.1,0-0.3,0c5.2,7.6,12.8,15.1,21.4,19.6c4.1-2.9,8.8-8.8,8.7-20.4
			c0,0-0.2-9.7-0.8-20.7c-9,2-18.5,2.8-25.7-1.3C79.7,147.3,78.2,155.7,78.1,162.5z"/>
		<path id="XMLID_6_" class="st3" d="M103.6,111.9c1.7,5.4,2.8,17.9,3.5,29.1c-9,2-18.5,2.8-25.7-1.3c2.7-11.8,6-21.9,6-21.9
			c0-1-0.3-1.7-0.2-2.7c-2.2-0.5-4.2-1.8-5.6-3.5c-0.9-1.1-1.6-2.4-3-2.8c-1-0.3-2,0-3,0c-1,0-2.2-0.5-2.3-1.5
			c-0.1-1.1,1-1.8,2.1-2.1c1.5-0.5,3.1-0.7,4.6-0.6c1.9,0.1,4.2,0.4,5.2-1.2c1-1.6-0.2-3.5-1.4-4.9c-2.8-3.4-5.6-6.9-8.5-10.3
			c-1-1.2-2-2.5-2.1-4.1c0-0.4,0-0.8,0.3-1c0.5-0.4,1.3,0,1.8,0.3c11.5,6.1,11.9-1.1,17.1,1.6c2.1,1.1,3.5,3.1,4.5,5.2
			c1,2.1,1.5,4.4,2.2,6.6C100.7,101.5,103.8,111.9,103.6,111.9z"/>
		<g id="XMLID_5_">
			<path id="XMLID_41_" class="st2" d="M73.3,107.2c-0.1-0.5,0.1-0.9,0.4-1.3c0.3-0.3,0.7-0.6,1.1-0.8c0.9-0.4,1.8-0.6,2.7-0.7
				c1.8-0.4,3.7,0.1,5.5-0.2c0.9-0.1,1.6-0.5,2-1.2c0.4-0.7,0.2-1.6-0.2-2.3c-0.4-0.8-0.9-1.5-1.5-2.2l-1.8-2.1
				c-2.4-2.8-4.7-5.6-7.1-8.4c-0.6-0.7-1.2-1.5-1.5-2.5c-0.2-0.5-0.3-1-0.3-1.5c0-0.3,0-0.6,0.1-0.9c0.1-0.2,0.2-0.3,0.3-0.5
				c0.2-0.1,0.1-0.1,0.2-0.2c0.1-0.1,0.2-0.1,0.3-0.1c0.8-0.2,1.3,0.1,1.8,0.3c0.4,0.2,0.8,0.4,1.2,0.6c0.4,0.2,0.8,0.4,1.2,0.6
				l1.2,0.5c1.7,0.6,3.4,1,5.1,0.9c0.8-0.1,1.7-0.3,2.5-0.6c0.8-0.3,1.7-0.7,2.7-0.9c1-0.2,2.1,0,3,0.5c0.9,0.4,1.7,1,2.4,1.7
				c1.4,1.4,2.3,3.1,3,4.8c0.7,1.8,1.1,3.5,1.7,5.3l1.6,5.3l1.5,5.3l0.7,2.7l0.4,1.3l0.2,0.7l0.1,0.3l0,0.2l0,0.1l0,0.1
				c0,0,0,0,0,0.2c0,0.2-0.2,0.2-0.3,0.2l0.3-0.4c0.6,2,0.9,4.1,1.2,6.2c0.3,2.1,0.5,4.2,0.6,6.3c-0.3-2.1-0.6-4.1-1-6.2
				c-0.4-2.1-0.8-4.1-1.5-6.1l0.3-0.4c-0.1,0-0.3,0.1-0.3,0.2c0,0.2,0,0.1,0,0.1l0,0l0-0.1l0-0.2l-0.1-0.3l-0.2-0.7l-0.4-1.3
				l-0.8-2.6l-1.7-5.2l-1.7-5.2c-0.6-1.8-1-3.5-1.7-5.2c-0.7-1.6-1.6-3.2-2.8-4.4c-0.6-0.6-1.3-1.1-2.1-1.4
				c-0.8-0.4-1.5-0.5-2.3-0.4c-0.8,0.1-1.6,0.5-2.5,0.8c-0.9,0.3-1.9,0.6-2.8,0.7c-2,0.1-3.9-0.3-5.6-1l-1.3-0.5
				c-0.4-0.2-0.8-0.4-1.2-0.6c-0.8-0.4-1.8-1-2.1-0.9c0,0,0,0,0,0c0,0-0.1,0.1-0.1,0c0,0,0,0-0.1,0.1c0,0.1-0.1,0.2-0.1,0.4
				c0,0.4,0.1,0.8,0.3,1.2c0.3,0.8,0.8,1.5,1.4,2.2l3.5,4.3l3.4,4.3L84,98c0.6,0.7,1.1,1.5,1.5,2.4c0.4,0.9,0.6,2,0.1,3
				c-0.2,0.5-0.6,0.8-1.1,1.1c-0.5,0.2-0.9,0.4-1.4,0.4c-1,0.1-1.9,0-2.8-0.1c-0.9-0.1-1.8-0.1-2.7,0c-0.9,0.1-1.8,0.3-2.6,0.6
				c-0.4,0.2-0.8,0.4-1.1,0.7C73.4,106.3,73.2,106.8,73.3,107.2z"/>
		</g>
		<path id="XMLID_4_" class="st4" d="M155.4,140.2c0,0,0-0.1-0.1-0.3c8.9,2.4,18.5,7,25.6,13.7c-1.4,4.9-5.4,11.2-16.3,15
			c0,0-9.2,3-19.8,6.1c-1.2-9.1-3.5-18.4-9.8-23.8C141.6,146.8,149,142.6,155.4,140.2z"/>
		<path id="XMLID_3_" class="st3" d="M116.2,181.2c5.6-0.1,17.8-3.3,28.6-6.4c-1.2-9.1-3.5-18.4-9.8-23.8
			c-10.2,6.4-18.7,12.9-18.7,12.9c-0.9,0.3-1.7,0.2-2.6,0.7c-1.2-1.9-3.1-3.4-5.2-4.1c-1.3-0.5-2.8-0.7-3.7-1.8
			c-0.6-0.8-0.7-1.9-1-2.8s-1.2-1.9-2.2-1.7c-1.1,0.2-1.4,1.6-1.3,2.7c0,1.6,0.4,3.1,1,4.6c0.7,1.7,1.8,3.8,0.6,5.3
			c-1.1,1.4-3.4,0.9-5.1,0.3c-4.2-1.5-8.3-3-12.5-4.6c-1.5-0.5-3.1-1.1-4.6-0.7c-0.4,0.1-0.7,0.3-0.9,0.6c-0.3,0.6,0.4,1.2,0.9,1.6
			c9.6,8.8,3,11.6,7.2,15.6c1.7,1.6,4.1,2.3,6.4,2.5c2.3,0.2,4.6,0,7-0.1C105.3,181.8,116.2,181.3,116.2,181.2z"/>
	</g>
</g>
</svg>
