<?xml version="1.0" encoding="utf-8"?>
<!-- Generator: Adobe Illustrator 19.0.0, SVG Export Plug-In . SVG Version: 6.00 Build 0)  -->
<svg version="1.1" id="Camada_1" xmlns="http://www.w3.org/2000/svg" xmlns:xlink="http://www.w3.org/1999/xlink" x="0px" y="0px"
	 viewBox="0 0 163.9 155" style="enable-background:new 0 0 163.9 155;" xml:space="preserve">
<style type="text/css">
	.st0{clip-path:url(#XMLID_65_);fill:#FFECB6;}
	.st1{clip-path:url(#XMLID_65_);fill:#808080;}
	.st2{clip-path:url(#XMLID_65_);fill:#1A1A1A;}
	.st3{clip-path:url(#XMLID_65_);fill:#F7931E;}
	.st4{clip-path:url(#XMLID_65_);}
	.st5{fill:none;stroke:#1A1A1A;stroke-width:2;stroke-linecap:round;stroke-linejoin:round;stroke-miterlimit:10;}
	.st6{clip-path:url(#XMLID_65_);fill:none;stroke:#FFCC66;stroke-linecap:round;stroke-linejoin:round;stroke-miterlimit:10;}
	.st7{clip-path:url(#XMLID_65_);fill:none;stroke:#000000;stroke-miterlimit:10;}
	.st8{clip-path:url(#XMLID_65_);fill:#FF6666;}
	.st9{fill:#FFCC66;}
	.st10{fill:#CCCCCC;}
	.st11{fill:#333333;}
</style>
<g id="XMLID_2_">
	<defs>
		<path id="XMLID_3_" d="M86.5,155h-9C34.7,155,0,120.3,0,77.5v0C0,34.7,34.7,0,77.5,0h9c42.8,0,77.5,34.7,77.5,77.5v0
			C163.9,120.3,129.3,155,86.5,155z"/>
	</defs>
	<use xlink:href="#XMLID_3_"  style="overflow:visible;fill:#BBEEFF;"/>
	<clipPath id="XMLID_65_">
		<use xlink:href="#XMLID_3_"  style="overflow:visible;"/>
	</clipPath>
	<path id="XMLID_51_" class="st0" d="M26,130.8c-2.5-6.8-5-12.3-5-12.3c12.5-17.8,31.7-25.5,31.7-25.5c19.2-5.2,7.9-12.2,12.1-15.5
		c15.4-12.2,30.1-2.8,30.1-2.8c0,3.2,0.8,6.3,1.9,9.1c3.2,7.7,10.8,14,18.5,17.1c10.4,4.2,17.7,10,17.7,10c-0.9,3-0.9,8.2-0.6,13.6
		C132.4,124.4,96.9,176.7,26,130.8z"/>
	<path id="XMLID_50_" class="st1" d="M-5.1,423.1c0,0-38.8-18.8-48.8-80.2c-0.6-3.4-1.5-6.8-2.6-10.1c-7-20.2-0.5-40.3,4.9-53.7
		c0,0,68.4-29.5,90.1,20.7C32.1,388,18.8,436.5-5.1,423.1z"/>
	<path id="XMLID_49_" class="st0" d="M-68.1,436.6c-9.6,12.7-15.4,25.9-16.7,29.2c-0.2,0.6-0.5,1.1-0.9,1.6
		c-6.5,8.9-20.6,8.5-20.6,8.5c-5.2,11.6,16.8,22,16.8,22c6.1-11.1,30.7-23.7,43.2-29.6C-49.6,455.9-57.4,444.7-68.1,436.6z"/>
	<path id="XMLID_48_" class="st1" d="M12.1,417.6c-5.3-32.7-39.7-21.7-39.7-21.7c-5.3,11.1-19.3,20.7-22.3,22.7
		c-0.4,0.3-0.8,0.6-1.3,0.9c-6.6,4.8-12.2,10.9-17,17.2c10.7,8.1,18.5,19.2,21.8,31.8c4.5-2.1,7.5-3.4,7.5-3.4
		C14.5,438.2,12.1,417.6,12.1,417.6z"/>
	<path id="XMLID_47_" class="st2" d="M-118.4,497.3c0,0,6.6,11,8.5,18.5c0.4,1.6,1,3.1,1.9,4.4c3,4.6,10,14,19,16.4
		c0,0,23.6,9.8,23.4-8.1c0,0-2.8-15.4-14-17c0,0-1.2-15.9,6.6-17.4c0,0,12.3,0.1,4.3-10.7c0,0-13-12.3-15,2c0,0-0.9,3.3-3.8,1.2
		c0,0-17.3-8-8.6-12.3c0,0-4.4,1.1-10.2,1.6C-114.8,476.7-123.5,485.7-118.4,497.3z"/>
	<path id="XMLID_46_" class="st1" d="M107.7,282.9c0,0,9.1,124.6,7.2,153.9c0,0-5.8,30.8-44.5-9.5c0,0-56.2-56.8-37.6-117.2
		C32.7,310,61.3,271.9,107.7,282.9z"/>
	<path id="XMLID_45_" class="st1" d="M85.7,488.3c7.8-1.7,15.2-0.5,22.5,1.3c2.1-19.6,4.7-37.3,4.7-37.3
		c7.5-30.6-9.4-36.9-13.1-37.1c-12.4-0.4-27.2,6.6-26.9,17.3c0.1,4.5-0.8,11.5-4.2,19.9c-5.7,14-4,29-1.1,41.2
		C71.6,490.3,81.2,489.6,85.7,488.3z"/>
	<path id="XMLID_44_" class="st0" d="M106.4,538.5c-2-7.3-0.3-29.1,1.8-48.9c-7.3-1.9-14.7-3-22.5-1.3c-4.5,1.3-14.1,1.9-18.1,5.4
		c3.1,13,12.2,23.6,12.2,23.6c4,8.5,8,21.6,8,21.6c7,15.2,0.4,27.6,0.4,27.6c19.4,4.5,28.1-17.2,28.1-17.2
		C110.9,549.2,106.4,538.5,106.4,538.5z"/>
	<path id="XMLID_43_" class="st2" d="M87.3,570c0,0-3.9,10.3,10.1,14.4c0,0,11.9,3.5,16.9-0.9c0,0,11-8.8,20.7-9.1
		c0.9,0,1.8-0.2,2.6-0.5c6.7-2.3,31.2-12.3,16.3-31.7c0,0-15.9-12.6-23.2-0.7c0,0-4.2,10.7-11.4,10.3c0,0-0.9-3.8-0.2-6.6
		c0.3-1.4-0.7-2.8-2.2-3c-2.9-0.3-7.2-0.1-11.1,3.4c-1,0.9-1.1,2.5-0.2,3.5c2.3,2.7,6.6,7.4,7,6.8c0.6-0.9-13.8,14.5-23.1,7.3
		C89.5,563.3,88.3,565.6,87.3,570z"/>
	<path id="XMLID_42_" class="st2" d="M-3.5,179c0,0,11.5-49,27-63.9c0,0,13.9,32,8,42.9c0,0-14.2,39.5-36.2,39.2
		C-4.6,197.2-6.5,192.7-3.5,179z"/>
	<path id="XMLID_41_" class="st0" d="M-3.3,155.5c-4.2-6.3-7.8-11-7.8-11c-9.1-10.6-14.1-3.4-14.1-3.4c-1.6,15.5,0.5,26.7,2.6,33.5
		C-14.5,170.7-8.2,163.7-3.3,155.5z"/>
	<path id="XMLID_40_" class="st2" d="M9.7,180.9c-0.9-6.3-7.5-17.1-13-25.3c-4.8,8.2-11.2,15.2-19.4,19.1c1.6,5.2,3.2,7.9,3.2,7.9
		C2.9,212,9.7,180.9,9.7,180.9z"/>
	<path id="XMLID_39_" class="st0" d="M-22.5,145.5c-13.1-5.5-12.4-12.4-7.1-24.5c0,0,3.5-8.8,3.2-12.9c0,0,6.4-5.9,1.9,12.7
		c0,0,5-2.6,8.1-15.6c0,0,3.3-7.8,4,3.7c0,0-1.1,7.3-4.5,12.2c0,0,2,3.2,11.8-11.8c0,0,5-5.2,2,5.6c0,0-3.1,8.1-8.4,11.9
		c0,0,10.3-2.3,15.1-5.1c0,0,3.3,5.8-12.1,9.4c0,0-0.2,7.9-3.9,11.1C-12.3,142.1-16.7,147.4-22.5,145.5z"/>
	<path id="XMLID_38_" class="st2" d="M36.5,102.5c-5.2,4-10.8,9.2-15.5,15.9c0,0,7.3,21.5,6.9,32.4c0,0-2.3,8.4-2.1,16.9
		c0.2,5.7-1.9,11.3-5.7,15.6c-3.2,3.7-6.7,8.6-8.3,14.5c-0.7,2.3-1.8,4.4-3.3,6.3c-7.3,9.4-23.7,39.3-11.3,67.1
		c0,0,58.5,10.6,130.8-28.1c0,0-0.3-3.8-0.4-11.4c2.9-21.4,2.7-27.5,2-38.4c-0.2-3.8,3.6-11.2,6.1-14.2c4.1-4.9,8.7-15.5-1.3-35.1
		c0,0-3.8-25.1-1.4-33.3c0,0-4.9-3.9-12.3-7.6c0,0-3.2,36.4-38.2,37.4C82.5,140.7,58.2,141,36.5,102.5z"/>
	<path id="XMLID_37_" class="st3" d="M55.1,92.2c-10.7,3.1-23.5,12.8-31.6,22.9c0,0,0,0,0,0c-5.8,5.6-11,15.9-15.3,26.6
		c0,0,115.3,8,115.3-37c-2.4-1.3-5.2-2.7-8.2-3.9c-3.2-1.3-6.2-3.1-8.9-5.3c-0.3-0.2-0.6-0.5-0.9-0.7
		C105.5,94.8,74.6,122.7,55.1,92.2z"/>
	<path id="XMLID_36_" class="st2" d="M160.8,200.4c-1.9-71.7-24.8-87.6-24.8-87.6c-10.3-10.9-7.3,39.4-7.3,39.4
		c1.1,19.1,7,40.8,7,40.8c-6.3,2.1-13.7,5.9-20.3,9.7c6,5.5,7.9,14.6,8.7,23.6c10.5-2.6,19.5-5.2,19.5-5.2
		C162.9,215.2,160.8,200.4,160.8,200.4z"/>
	<path id="XMLID_35_" class="st0" d="M93,251.7c-12.8,7.4-23.4,14.9-23.4,14.9c-7.4,2.2-10.5-4.2-10.5-4.2
		c-2.9-13.1-8.8-7.9-8.8-7.9c-3.3,2.2-7.1,2.7-7.1,2.7c-9.9,0.3-11.5,5.7-11.5,5.7c-5.7,1.5-5.4,9.8-5.4,9.8
		c-0.8,6.2,6.8,11.1,6.8,11.1c22.2,10,35.4,3.9,35.4,3.9c6.9,0.1,21.9-3.2,35.2-6.5C102.9,270,100.5,258.6,93,251.7z"/>
	<path id="XMLID_34_" class="st0" d="M47,55.8c0.6,2,3.4,10.1,4.6,15c0.9,3.6,2.9,6.8,5.7,9.1c3.6,2.9,7.4,4.3,9.4,4.8
		c0.7,0.2,1.4,0.3,2.2,0.3c4.7,0.2,8.4,0.8,8.4,0.8c8.8,2,13-1.3,13-1.3c2.4-1.4,7.8-5.2,7.8-5.2c6.2-5.3,6.5-12,6.2-15.3
		c-0.1-1-0.4-2-0.8-3c-2-4.7-2-11.9-1.7-16.5c0.4-6.5-1.7-13-6.1-17.8c-3.4-3.7-8.6-7.1-16.4-8.3c0,0-25.2-3.2-32.4,21.4
		C47.1,39.8,44.3,46.2,47,55.8z"/>
	<path id="XMLID_33_" class="st0" d="M51.8,65.4c0,0-8.8-5.8-4.9,4.1c0,0,1.5,4.8,5.8,7.1c2.7,1.5,5.9-1.1,5.1-4.1
		C57.2,70.5,55.6,68,51.8,65.4z"/>
	<circle id="XMLID_32_" class="st2" cx="69.3" cy="61.3" r="2.3"/>
	<circle id="XMLID_31_" class="st2" cx="89.3" cy="57.2" r="2.3"/>
	<g id="XMLID_24_" class="st4">
		<line id="XMLID_30_" class="st5" x1="76.8" y1="56.5" x2="82" y2="55.4"/>
		<line id="XMLID_29_" class="st5" x1="96.7" y1="52.2" x2="101.8" y2="51.1"/>
		<line id="XMLID_28_" class="st5" x1="49.5" y1="62.4" x2="62.1" y2="59.7"/>
		<g id="XMLID_25_">
			<path id="XMLID_27_" class="st5" d="M72.2,66.6l-5.1,1.1c-2.3,0.5-4.5-1-5-3.2l-0.4-1.9c-0.5-2.2,0.9-4.4,3.1-4.8l9.7-2.1
				c1.2-0.3,2.3,0.5,2.5,1.6l0.3,1.3C78.1,62.2,75.8,65.8,72.2,66.6z"/>
			<path id="XMLID_26_" class="st5" d="M90.4,62.6l5.1-1.1c2.3-0.5,3.7-2.7,3.2-5l-0.4-1.9c-0.5-2.2-2.6-3.6-4.8-3.1l-9.7,2.1
				c-1.2,0.3-1.9,1.4-1.6,2.5l0.3,1.3C83.2,61.1,86.8,63.4,90.4,62.6z"/>
		</g>
	</g>
	<path id="XMLID_23_" class="st6" d="M87,66c0,0-0.9,2.8-8.3,2.7"/>
	<path id="XMLID_22_" class="st2" d="M72.6,71.4c0,0,7.8,2.8,15.3,2.1C87.9,73.5,81.8,86.9,72.6,71.4z"/>
	<path id="XMLID_21_" class="st7" d="M93.5,37.5"/>
	<path id="XMLID_20_" class="st8" d="M75.2,75.1c4.5,5.4,8.1,4,10.3,1.9C82.5,74.9,78.7,75.1,75.2,75.1z"/>
	<g id="XMLID_17_" class="st4">
		<path id="XMLID_19_" class="st9" d="M-432.9-220.2c-0.4,1.3-0.7,2.6-0.8,3.9c-0.2,1.3-0.2,2.7-0.2,4c0.1,1.3,0.1,2.6,0.4,4
			c0.2,1.3,0.5,2.6,0.9,3.9c0.4,1.3,0.8,2.5,1.3,3.8l1.3,3.8c0.8,2.5,1.6,5.1,2.3,7.7c0.3,1.3,0.8,2.5,1.4,3.6
			c0.6,1.2,1.3,2.2,2.2,3.2c0.9,1,1.8,1.8,2.9,2.6c1,0.8,2.2,1.5,3.3,2.1c1.2,0.6,2.4,1.1,3.6,1.5c1.3,0.4,2.5,0.8,3.8,0.8
			c2.7,0.2,5.3,0.5,8,0.9l0,0l0,0c2.5,0.6,5.1,0.9,7.7,0.7c-2.6,0.4-5.2,0.2-7.8-0.3l0,0c-2.6-0.3-5.3-0.5-8-0.6
			c-1.4,0-2.8-0.3-4-0.7c-1.3-0.4-2.6-0.9-3.8-1.5c-1.2-0.6-2.4-1.3-3.5-2.1c-1.1-0.8-2.2-1.7-3-2.7c-0.9-1-1.7-2.2-2.3-3.4
			c-0.6-1.2-1.1-2.5-1.4-3.9c-0.6-2.6-1.4-5.1-2.2-7.7l-1.2-3.8c-0.4-1.3-0.8-2.5-1.2-3.9c-0.3-1.3-0.6-2.6-0.8-4
			c-0.2-1.3-0.3-2.7-0.2-4c0-1.3,0.2-2.7,0.4-4C-433.8-217.7-433.5-219-432.9-220.2z"/>
	</g>
	<path id="XMLID_16_" class="st2" d="M32.1,63.1c8.6,0.8,17.5-2.7,23.2-9.2l0,0c-0.5,1.5-1.1,3.2-1.8,4.6c-0.2,0.5,0.2,0.9,0.7,0.8
		c6.6-2.7,12.6-6.8,17.5-12c0.1,0.8-0.2,1.5-0.5,2.2c-1,1.9-2,3.8-3.3,5.5c-0.3,0.4,0.1,1,0.6,0.9c3.9-1.5,7.8-3.3,10.5-6.5
		c1-1.3,1.8-2.7,2.7-4.1c1.6-2.5,3.4-4.9,5.3-7.3c0.7-0.9,1.6-1.8,2.8-1.6c1,0.1,1.8,1,2,2c0.4,1.6-0.4,3.1-1.1,4.5
		c1.3-2.2,3.1-4.1,5.2-5.6c0.6-0.4,1.3-0.9,2.1-1s1.6,0.1,2.1,0.6c0.4,0.4,0.5,1,0.5,1.6c0.3,2.9,0,5.8,0.4,8.6
		c0.3,2.2,1.1,4.4,2.5,6c0.4,0.4,1,0,0.8-0.5c-1.2-3.1-0.9-5.9-0.3-9.3l0,0c0.2,2.3,1.7,2.8,3.1,2.9c0.2-0.3,0.3-0.4,0.5-0.7
		c-2.7-6.2,0.3-15.1-1.9-21.6c-0.6-1.8-2.3-3.1-4.1-3.5c-1.8-0.4-3.9,0.5-4.6,2.2c0,0,0,0,0,0c-1.7-4.9-5.7-9.3-10.2-11.8
		c-4.6-2.5-10-3.1-15.1-1.9c-2.7,0.7-5.3,1.9-8,2.6c-5.9,1.6-12.4,0.7-17.6-2.4l0,0c0.2,2.7,0.9,5.2,3.1,6.8c0,0,0,0,0,0
		c-2-0.7-4.8-0.6-6.7,0.5c-1.8,1.1-3.4,2.6-5.1,3.9c-3.5,2.8-8,4.8-12.4,4.5c-0.4,0-0.6,0.4-0.4,0.7c2.3,4.2,7.1,7.1,11.9,7l0,0
		c-1.5,3.6-6,6.7-8.1,7.6c-0.4,0.1-0.4,0.7,0,0.8c2.2,1,6.4,1.8,10.2-0.1c0,0,0,0,0,0c-3.3,4.8-8.5,8.4-14.2,9.8
		C24.1,51,24.1,51,24,51.4c2.2,1.3,4.3,2.2,6.9,2.2c2.8,0,5.7-1.1,7.5-3.3c0.1,0.1,0.1,0.1,0.2,0.1c-0.4,1.6-1.1,3.2-2,4.6
		c-1.7,2.6-2.5,5.6-4.9,7.3C32,62.7,32,62.7,32.1,63.1z"/>
	<g id="XMLID_13_" class="st4">
		<path id="XMLID_15_" class="st10" d="M-448.5-102c0,0-0.9,3.4-2.9,8.3c-1,2.4-2.3,5.3-3.9,8.2c-0.8,1.4-1.7,2.9-2.6,4.4
			c-0.9,1.5-2,2.9-3,4.4c-1.1,1.4-2.2,2.8-3.4,4.1c-1.2,1.3-2.4,2.5-3.7,3.6c-0.6,0.5-1.3,1.1-1.9,1.5c-0.6,0.5-1.3,0.9-2,1.3
			c-1.3,0.8-2.6,1.5-3.9,2c-0.6,0.3-1.2,0.5-1.8,0.6c-0.3,0.1-0.6,0.2-0.9,0.3c-0.3,0.1-0.6,0.1-0.8,0.2c-1.1,0.3-2,0.3-2.8,0.4
			c-0.8,0.1-1.4,0-1.8,0c-0.4,0-0.6,0-0.6,0s0.2,0,0.6-0.1c0.4-0.1,1-0.1,1.8-0.3c0.7-0.2,1.6-0.3,2.6-0.7c0.2-0.1,0.5-0.2,0.8-0.3
			c0.3-0.1,0.5-0.2,0.8-0.3c0.5-0.2,1.1-0.5,1.7-0.8c0.6-0.3,1.2-0.6,1.7-1c0.6-0.4,1.2-0.7,1.8-1.2c0.6-0.4,1.2-0.9,1.8-1.4
			c0.6-0.5,1.2-1,1.8-1.6c1.2-1.1,2.3-2.3,3.5-3.6c1.1-1.3,2.2-2.6,3.2-4c1.1-1.4,2.1-2.8,3-4.2c0.9-1.4,1.9-2.8,2.7-4.2
			c0.8-1.4,1.6-2.8,2.4-4.1c0.7-1.3,1.4-2.6,2-3.7C-450-98.8-448.5-102-448.5-102z"/>
	</g>
	<g id="XMLID_10_" class="st4">
		<path id="XMLID_12_" class="st10" d="M-348.8-72.8c0.6-1.8,1.4-3.6,2.3-5.4c0.5-0.9,1-1.7,1.6-2.5c0.6-0.8,1.1-1.6,1.6-2.3
			c0.2-0.4,0.4-0.8,0.7-1.2c0.2-0.4,0.4-0.9,0.6-1.3c0.3-0.9,0.7-1.7,0.9-2.7c0.3-0.9,0.4-1.8,0.6-2.7c0.1-0.9,0.2-1.9,0.2-2.8
			c0-0.5,0-0.9,0-1.4l-0.1-1.4c0-0.9-0.2-1.9-0.3-2.8c-0.1-0.9-0.4-1.8-0.5-2.8c-0.2-0.9-0.5-1.8-0.7-2.7c-0.2-0.9-0.6-1.8-0.9-2.7
			c-0.3-0.9-0.6-1.8-1-2.7c-0.3-0.9-0.7-1.8-1.1-2.6l-1.2-2.6l-0.1-0.1l0-0.1c-0.3-2.6-0.5-5.2-0.7-7.8c-0.2-2.6-0.3-5.2-0.3-7.8
			c0.8,5.1,1.7,10.2,2.5,15.3l-0.1-0.2l1.3,2.6c0.5,0.9,0.8,1.8,1.2,2.7c0.4,0.9,0.8,1.8,1.1,2.7c0.3,0.9,0.7,1.8,0.9,2.8
			c0.3,1,0.6,1.9,0.8,2.9c0.2,1,0.4,1.9,0.5,2.9c0.1,1,0.3,2,0.3,3l0.1,1.5c0,0.5,0,1-0.1,1.5c0,1-0.2,2-0.3,3c-0.2,1-0.4,2-0.7,2.9
			c-0.3,1-0.7,1.9-1.1,2.8c-0.4,0.9-0.9,1.8-1.5,2.6c-0.6,0.8-1.2,1.6-1.9,2.3c-0.6,0.7-1.2,1.5-1.7,2.3
			C-346.9-76.2-347.9-74.6-348.8-72.8z"/>
	</g>
	<g id="XMLID_7_" class="st4">
		<path id="XMLID_9_" class="st11" d="M-444.3,70.9c0,0-0.1,1.3-0.2,3.6c-0.1,2.3-0.3,5.5-0.7,9.4c-0.4,3.9-0.8,8.4-1.5,13.2
			c-0.3,2.4-0.7,4.9-1.1,7.4c-0.4,2.5-0.8,5.1-1.3,7.7c-0.5,2.6-1,5.1-1.5,7.6c-0.6,2.5-1.1,5-1.8,7.3c-0.6,2.4-1.3,4.6-1.9,6.8
			c-0.7,2.1-1.3,4.2-2,6c-0.6,1.8-1.4,3.5-2,5c-0.6,1.5-1.3,2.7-1.7,3.7c-0.5,1-1,1.8-1.3,2.3c-0.3,0.5-0.5,0.8-0.5,0.8
			s0.5-1.2,1.4-3.3c0.4-1.1,0.9-2.3,1.4-3.8c0.5-1.5,1-3.2,1.6-5.1c0.6-1.8,1.1-3.9,1.7-6c0.5-2.2,1.1-4.4,1.6-6.8
			c0.6-2.4,1-4.8,1.6-7.3c0.5-2.5,1-5,1.5-7.6c1-5.1,1.8-10.2,2.6-15c0.8-4.8,1.5-9.3,2.1-13.1c0.6-3.8,1.1-7.1,1.5-9.3
			C-444.5,72.1-444.3,70.9-444.3,70.9z"/>
	</g>
	<g id="XMLID_4_" class="st4">
		<path id="XMLID_6_" class="st9" d="M-387-8.3c-3.9,2.4-7.9,4.9-11.7,7.4c-3.9,2.5-7.7,5.1-11.5,7.8l0,0c0,0-0.1,0-0.1,0l-0.8,0.2
			c-0.3,0.1-0.5,0.1-0.8,0.2l-0.8,0.1c-0.3,0-0.5,0-0.8,0c-0.3,0-0.5,0-0.8,0l-0.8-0.1c-0.3,0-0.5-0.1-0.8-0.2
			c-0.3-0.1-0.5-0.2-0.8-0.3c-0.2-0.1-0.5-0.2-0.7-0.3c-0.2-0.1-0.5-0.3-0.7-0.4l-0.7-0.5l-0.6-0.5c-0.4-0.4-0.8-0.8-1.1-1.2
			c-0.3-0.4-0.6-0.9-0.9-1.4c0,0,0,0,0-0.1l0,0l-0.4-1.7c-0.1-0.6-0.4-1.1-0.5-1.7c-0.1-0.3-0.2-0.6-0.3-0.8l-0.4-0.8
			c-0.1-0.3-0.2-0.5-0.4-0.8l-0.5-0.7l-0.5-0.6c-0.2-0.2-0.4-0.4-0.6-0.6c-0.2-0.2-0.4-0.3-0.7-0.4c-0.2-0.2-0.5-0.2-0.7-0.3
			c-0.3,0-0.5-0.1-0.8,0l-0.4,0l-0.4,0.1c-0.3,0.1-0.5,0.2-0.7,0.3c-0.2,0.1-0.5,0.3-0.7,0.4l0,0l0,0c-1.1,0.7-2.3,1.3-3.5,1.7
			c-0.6,0.2-1.2,0.4-1.9,0.6c-0.6,0.2-1.3,0.3-1.9,0.4l0,0l0,0l-1.7,0.1c-0.5,0.1-1.1,0.1-1.6,0.2c-0.5,0.1-1.1,0.2-1.6,0.4
			l-0.8,0.2c-0.3,0.1-0.5,0.2-0.8,0.3c-0.3,0.1-0.5,0.2-0.7,0.3c-0.2,0.1-0.5,0.2-0.7,0.4c-0.5,0.3-0.9,0.6-1.3,0.9
			c-0.4,0.4-0.8,0.7-1.1,1.2c-0.2,0.2-0.3,0.4-0.4,0.7c-0.1,0.2-0.3,0.5-0.3,0.7c0,0.1-0.1,0.2-0.3,0.3l0,0l-0.7,0.2
			c-0.2,0.1-0.4,0.2-0.6,0.3c-0.2,0.1-0.4,0.2-0.6,0.4l-0.6,0.4l-0.5,0.5c-0.2,0.2-0.3,0.4-0.4,0.6c-0.1,0.2-0.3,0.4-0.4,0.6
			c-0.1,0.2-0.2,0.4-0.3,0.6c-0.2,0.4-0.4,0.9-0.5,1.4c-0.1,0.5-0.3,0.9-0.3,1.4c-0.2,1-0.3,2-0.3,2.9v0l0,0l0,0.8
			c0,0.3,0,0.5,0,0.8c0,0.3,0,0.6,0.1,0.8l0.2,0.8l0.3,0.8c0.1,0.3,0.2,0.5,0.4,0.8c0.1,0.3,0.3,0.5,0.4,0.7
			c0.2,0.2,0.3,0.5,0.5,0.7c0.3,0.5,0.7,0.9,1,1.3c0.2,0.2,0.4,0.4,0.6,0.6c0.2,0.2,0.4,0.4,0.6,0.6c0.8,0.8,1.7,1.5,2.6,2.2
			c-1-0.6-1.9-1.3-2.7-2.1c-0.2-0.2-0.4-0.4-0.6-0.6c-0.2-0.2-0.4-0.4-0.6-0.6c-0.4-0.4-0.8-0.9-1.1-1.3c-0.2-0.2-0.3-0.5-0.5-0.7
			c-0.2-0.2-0.3-0.5-0.4-0.7c-0.1-0.3-0.3-0.5-0.4-0.8l-0.3-0.8c-0.1-0.3-0.2-0.6-0.2-0.8c-0.1-0.3-0.1-0.6-0.2-0.9
			c0-0.3-0.1-0.6-0.1-0.9l0-0.9l0,0c0-1,0-2,0.2-3.1c0.1-0.5,0.2-1,0.3-1.5c0.1-0.5,0.3-1,0.5-1.5c0.1-0.2,0.2-0.5,0.3-0.7
			c0.1-0.2,0.2-0.5,0.4-0.7c0.2-0.2,0.3-0.4,0.5-0.6l0.5-0.6l0.6-0.5c0.2-0.2,0.4-0.3,0.7-0.4c0.2-0.1,0.5-0.3,0.7-0.4l0.8-0.3
			l-0.3,0.3c0.1-0.3,0.2-0.6,0.4-0.9c0.2-0.3,0.3-0.5,0.5-0.8c0.3-0.5,0.8-0.9,1.2-1.3c0.5-0.4,0.9-0.7,1.4-1
			c0.2-0.2,0.5-0.3,0.8-0.4c0.3-0.1,0.5-0.3,0.8-0.4c0.3-0.1,0.5-0.2,0.8-0.3l0.8-0.3c0.6-0.2,1.1-0.3,1.7-0.4
			c0.6-0.1,1.1-0.2,1.7-0.2l1.7-0.1l0,0c0.6-0.1,1.2-0.2,1.8-0.4c0.6-0.2,1.2-0.3,1.8-0.6c1.2-0.4,2.3-1,3.3-1.7l-0.1,0
			c0.3-0.2,0.5-0.4,0.8-0.6c0.3-0.2,0.6-0.3,0.9-0.4l0.5-0.1l0.5-0.1c0.3,0,0.7,0,1,0.1c0.3,0.1,0.7,0.2,1,0.3
			c0.3,0.2,0.6,0.3,0.8,0.5c0.2,0.2,0.5,0.4,0.7,0.7c0.2,0.3,0.4,0.5,0.6,0.8l0.5,0.8c0.2,0.3,0.3,0.5,0.4,0.8l0.4,0.9
			c0.1,0.3,0.2,0.6,0.3,0.9c0.2,0.6,0.4,1.2,0.6,1.8l0.4,1.8l0-0.1c0.2,0.4,0.5,0.8,0.8,1.2c0.3,0.4,0.6,0.7,1,1.1l0.6,0.5l0.6,0.4
			c0.2,0.1,0.4,0.2,0.6,0.4c0.2,0.1,0.4,0.2,0.7,0.3c0.2,0.1,0.4,0.2,0.7,0.2c0.2,0.1,0.5,0.2,0.7,0.2l0.7,0.1c0.2,0,0.5,0,0.7,0
			c0.2,0,0.5,0,0.7,0l0.7-0.1c0.2,0,0.5-0.1,0.7-0.1l0.7-0.2l-0.1,0.1c3.8-2.6,7.7-5.1,11.7-7.6c2-1.2,4-2.4,6-3.6
			C-391-6.1-389-7.2-387-8.3z"/>
	</g>
</g>
</svg>
